%TF.GenerationSoftware,KiCad,Pcbnew,7.0.7*%
%TF.CreationDate,2023-10-13T15:55:00-04:00*%
%TF.ProjectId,project1,70726f6a-6563-4743-912e-6b696361645f,rev?*%
%TF.SameCoordinates,Original*%
%TF.FileFunction,Drillmap*%
%TF.FilePolarity,Positive*%
%FSLAX45Y45*%
G04 Gerber Fmt 4.5, Leading zero omitted, Abs format (unit mm)*
G04 Created by KiCad (PCBNEW 7.0.7) date 2023-10-13 15:55:00*
%MOMM*%
%LPD*%
G01*
G04 APERTURE LIST*
%ADD10C,0.200000*%
G04 APERTURE END LIST*
D10*
X10000000Y-14000000D02*
X14500000Y-14000000D01*
X14500000Y-14000000D02*
X14500000Y-10000000D01*
X10000000Y-10000000D02*
X10000000Y-14000000D01*
X14500000Y-10000000D02*
X10000000Y-10000000D01*
X10250777Y-14321484D02*
X10250777Y-14121484D01*
X10250777Y-14121484D02*
X10298396Y-14121484D01*
X10298396Y-14121484D02*
X10326967Y-14131008D01*
X10326967Y-14131008D02*
X10346015Y-14150055D01*
X10346015Y-14150055D02*
X10355539Y-14169103D01*
X10355539Y-14169103D02*
X10365063Y-14207198D01*
X10365063Y-14207198D02*
X10365063Y-14235769D01*
X10365063Y-14235769D02*
X10355539Y-14273865D01*
X10355539Y-14273865D02*
X10346015Y-14292912D01*
X10346015Y-14292912D02*
X10326967Y-14311960D01*
X10326967Y-14311960D02*
X10298396Y-14321484D01*
X10298396Y-14321484D02*
X10250777Y-14321484D01*
X10450777Y-14321484D02*
X10450777Y-14188150D01*
X10450777Y-14226246D02*
X10460301Y-14207198D01*
X10460301Y-14207198D02*
X10469824Y-14197674D01*
X10469824Y-14197674D02*
X10488872Y-14188150D01*
X10488872Y-14188150D02*
X10507920Y-14188150D01*
X10574586Y-14321484D02*
X10574586Y-14188150D01*
X10574586Y-14121484D02*
X10565063Y-14131008D01*
X10565063Y-14131008D02*
X10574586Y-14140531D01*
X10574586Y-14140531D02*
X10584110Y-14131008D01*
X10584110Y-14131008D02*
X10574586Y-14121484D01*
X10574586Y-14121484D02*
X10574586Y-14140531D01*
X10698396Y-14321484D02*
X10679348Y-14311960D01*
X10679348Y-14311960D02*
X10669824Y-14292912D01*
X10669824Y-14292912D02*
X10669824Y-14121484D01*
X10803158Y-14321484D02*
X10784110Y-14311960D01*
X10784110Y-14311960D02*
X10774586Y-14292912D01*
X10774586Y-14292912D02*
X10774586Y-14121484D01*
X11031729Y-14321484D02*
X11031729Y-14121484D01*
X11031729Y-14121484D02*
X11098396Y-14264341D01*
X11098396Y-14264341D02*
X11165063Y-14121484D01*
X11165063Y-14121484D02*
X11165063Y-14321484D01*
X11346015Y-14321484D02*
X11346015Y-14216722D01*
X11346015Y-14216722D02*
X11336491Y-14197674D01*
X11336491Y-14197674D02*
X11317443Y-14188150D01*
X11317443Y-14188150D02*
X11279348Y-14188150D01*
X11279348Y-14188150D02*
X11260301Y-14197674D01*
X11346015Y-14311960D02*
X11326967Y-14321484D01*
X11326967Y-14321484D02*
X11279348Y-14321484D01*
X11279348Y-14321484D02*
X11260301Y-14311960D01*
X11260301Y-14311960D02*
X11250777Y-14292912D01*
X11250777Y-14292912D02*
X11250777Y-14273865D01*
X11250777Y-14273865D02*
X11260301Y-14254817D01*
X11260301Y-14254817D02*
X11279348Y-14245293D01*
X11279348Y-14245293D02*
X11326967Y-14245293D01*
X11326967Y-14245293D02*
X11346015Y-14235769D01*
X11441253Y-14188150D02*
X11441253Y-14388150D01*
X11441253Y-14197674D02*
X11460301Y-14188150D01*
X11460301Y-14188150D02*
X11498396Y-14188150D01*
X11498396Y-14188150D02*
X11517443Y-14197674D01*
X11517443Y-14197674D02*
X11526967Y-14207198D01*
X11526967Y-14207198D02*
X11536491Y-14226246D01*
X11536491Y-14226246D02*
X11536491Y-14283388D01*
X11536491Y-14283388D02*
X11526967Y-14302436D01*
X11526967Y-14302436D02*
X11517443Y-14311960D01*
X11517443Y-14311960D02*
X11498396Y-14321484D01*
X11498396Y-14321484D02*
X11460301Y-14321484D01*
X11460301Y-14321484D02*
X11441253Y-14311960D01*
X11622205Y-14302436D02*
X11631729Y-14311960D01*
X11631729Y-14311960D02*
X11622205Y-14321484D01*
X11622205Y-14321484D02*
X11612682Y-14311960D01*
X11612682Y-14311960D02*
X11622205Y-14302436D01*
X11622205Y-14302436D02*
X11622205Y-14321484D01*
X11622205Y-14197674D02*
X11631729Y-14207198D01*
X11631729Y-14207198D02*
X11622205Y-14216722D01*
X11622205Y-14216722D02*
X11612682Y-14207198D01*
X11612682Y-14207198D02*
X11622205Y-14197674D01*
X11622205Y-14197674D02*
X11622205Y-14216722D01*
M02*
