M48
; DRILL file {KiCad 7.0.7} date Fri Oct 13 15:54:59 2023
; FORMAT={-:-/ absolute / inch / decimal}
; #@! TF.CreationDate,2023-10-13T15:54:59-04:00
; #@! TF.GenerationSoftware,Kicad,Pcbnew,7.0.7
; #@! TF.FileFunction,Plated,1,2,PTH
FMAT,2
INCH
; #@! TA.AperFunction,Plated,PTH,ViaDrill
T1C0.0157
; #@! TA.AperFunction,Plated,PTH,ComponentDrill
T2C0.0315
; #@! TA.AperFunction,Plated,PTH,ComponentDrill
T3C0.0370
; #@! TA.AperFunction,Plated,PTH,ComponentDrill
T4C0.0394
; #@! TA.AperFunction,Plated,PTH,ComponentDrill
T5C0.0413
%
G90
G05
T1
X5.225Y-4.385
X5.245Y-5.43
T2
X4.065Y-4.08
X4.065Y-4.48
X4.17Y-5.035
X4.2683Y-4.08
X4.2683Y-4.48
X4.2684Y-5.035
X4.4716Y-5.035
X4.4717Y-4.08
X4.4717Y-4.48
X4.57Y-5.035
X4.675Y-4.08
X4.675Y-4.48
T3
X4.0826Y-5.3199
X4.185Y-5.3199
X4.2874Y-5.3199
X4.4426Y-5.3199
X4.545Y-5.3199
X4.6474Y-5.3199
T4
X4.125Y-4.68
X4.125Y-4.78
X4.62Y-4.68
X4.62Y-4.78
T5
X5.06Y-4.175
X5.36Y-4.175
T0
M30
