%TF.GenerationSoftware,KiCad,Pcbnew,7.0.7*%
%TF.CreationDate,2023-10-13T15:54:56-04:00*%
%TF.ProjectId,project1,70726f6a-6563-4743-912e-6b696361645f,rev?*%
%TF.SameCoordinates,Original*%
%TF.FileFunction,Legend,Top*%
%TF.FilePolarity,Positive*%
%FSLAX46Y46*%
G04 Gerber Fmt 4.6, Leading zero omitted, Abs format (unit mm)*
G04 Created by KiCad (PCBNEW 7.0.7) date 2023-10-13 15:54:56*
%MOMM*%
%LPD*%
G01*
G04 APERTURE LIST*
%ADD10C,0.150000*%
%ADD11C,0.254000*%
%ADD12C,0.120000*%
%ADD13C,0.127000*%
%ADD14C,0.100000*%
%ADD15C,0.200000*%
G04 APERTURE END LIST*
D10*
X101462153Y-108751666D02*
X100985962Y-109084999D01*
X101462153Y-109323094D02*
X100462153Y-109323094D01*
X100462153Y-109323094D02*
X100462153Y-108942142D01*
X100462153Y-108942142D02*
X100509772Y-108846904D01*
X100509772Y-108846904D02*
X100557391Y-108799285D01*
X100557391Y-108799285D02*
X100652629Y-108751666D01*
X100652629Y-108751666D02*
X100795486Y-108751666D01*
X100795486Y-108751666D02*
X100890724Y-108799285D01*
X100890724Y-108799285D02*
X100938343Y-108846904D01*
X100938343Y-108846904D02*
X100985962Y-108942142D01*
X100985962Y-108942142D02*
X100985962Y-109323094D01*
X100795486Y-107894523D02*
X101462153Y-107894523D01*
X100414534Y-108132618D02*
X101128819Y-108370713D01*
X101128819Y-108370713D02*
X101128819Y-107751666D01*
X103705819Y-110831238D02*
X103705819Y-111402666D01*
X103705819Y-111116952D02*
X102705819Y-111116952D01*
X102705819Y-111116952D02*
X102848676Y-111212190D01*
X102848676Y-111212190D02*
X102943914Y-111307428D01*
X102943914Y-111307428D02*
X102991533Y-111402666D01*
X103705819Y-110402666D02*
X102705819Y-110402666D01*
X103324866Y-110307428D02*
X103705819Y-110021714D01*
X103039152Y-110021714D02*
X103420104Y-110402666D01*
X114661333Y-124819580D02*
X114613714Y-124867200D01*
X114613714Y-124867200D02*
X114470857Y-124914819D01*
X114470857Y-124914819D02*
X114375619Y-124914819D01*
X114375619Y-124914819D02*
X114232762Y-124867200D01*
X114232762Y-124867200D02*
X114137524Y-124771961D01*
X114137524Y-124771961D02*
X114089905Y-124676723D01*
X114089905Y-124676723D02*
X114042286Y-124486247D01*
X114042286Y-124486247D02*
X114042286Y-124343390D01*
X114042286Y-124343390D02*
X114089905Y-124152914D01*
X114089905Y-124152914D02*
X114137524Y-124057676D01*
X114137524Y-124057676D02*
X114232762Y-123962438D01*
X114232762Y-123962438D02*
X114375619Y-123914819D01*
X114375619Y-123914819D02*
X114470857Y-123914819D01*
X114470857Y-123914819D02*
X114613714Y-123962438D01*
X114613714Y-123962438D02*
X114661333Y-124010057D01*
X115042286Y-124010057D02*
X115089905Y-123962438D01*
X115089905Y-123962438D02*
X115185143Y-123914819D01*
X115185143Y-123914819D02*
X115423238Y-123914819D01*
X115423238Y-123914819D02*
X115518476Y-123962438D01*
X115518476Y-123962438D02*
X115566095Y-124010057D01*
X115566095Y-124010057D02*
X115613714Y-124105295D01*
X115613714Y-124105295D02*
X115613714Y-124200533D01*
X115613714Y-124200533D02*
X115566095Y-124343390D01*
X115566095Y-124343390D02*
X114994667Y-124914819D01*
X114994667Y-124914819D02*
X115613714Y-124914819D01*
X124137009Y-125499714D02*
X124184628Y-125356857D01*
X124184628Y-125356857D02*
X124232247Y-125309238D01*
X124232247Y-125309238D02*
X124327485Y-125261619D01*
X124327485Y-125261619D02*
X124470342Y-125261619D01*
X124470342Y-125261619D02*
X124565580Y-125309238D01*
X124565580Y-125309238D02*
X124613200Y-125356857D01*
X124613200Y-125356857D02*
X124660819Y-125452095D01*
X124660819Y-125452095D02*
X124660819Y-125833047D01*
X124660819Y-125833047D02*
X123660819Y-125833047D01*
X123660819Y-125833047D02*
X123660819Y-125499714D01*
X123660819Y-125499714D02*
X123708438Y-125404476D01*
X123708438Y-125404476D02*
X123756057Y-125356857D01*
X123756057Y-125356857D02*
X123851295Y-125309238D01*
X123851295Y-125309238D02*
X123946533Y-125309238D01*
X123946533Y-125309238D02*
X124041771Y-125356857D01*
X124041771Y-125356857D02*
X124089390Y-125404476D01*
X124089390Y-125404476D02*
X124137009Y-125499714D01*
X124137009Y-125499714D02*
X124137009Y-125833047D01*
X123660819Y-124975904D02*
X123660819Y-124404476D01*
X124660819Y-124690190D02*
X123660819Y-124690190D01*
X124660819Y-123547333D02*
X124660819Y-124118761D01*
X124660819Y-123833047D02*
X123660819Y-123833047D01*
X123660819Y-123833047D02*
X123803676Y-123928285D01*
X123803676Y-123928285D02*
X123898914Y-124023523D01*
X123898914Y-124023523D02*
X123946533Y-124118761D01*
X107001333Y-124498580D02*
X106953714Y-124546200D01*
X106953714Y-124546200D02*
X106810857Y-124593819D01*
X106810857Y-124593819D02*
X106715619Y-124593819D01*
X106715619Y-124593819D02*
X106572762Y-124546200D01*
X106572762Y-124546200D02*
X106477524Y-124450961D01*
X106477524Y-124450961D02*
X106429905Y-124355723D01*
X106429905Y-124355723D02*
X106382286Y-124165247D01*
X106382286Y-124165247D02*
X106382286Y-124022390D01*
X106382286Y-124022390D02*
X106429905Y-123831914D01*
X106429905Y-123831914D02*
X106477524Y-123736676D01*
X106477524Y-123736676D02*
X106572762Y-123641438D01*
X106572762Y-123641438D02*
X106715619Y-123593819D01*
X106715619Y-123593819D02*
X106810857Y-123593819D01*
X106810857Y-123593819D02*
X106953714Y-123641438D01*
X106953714Y-123641438D02*
X107001333Y-123689057D01*
X107953714Y-124593819D02*
X107382286Y-124593819D01*
X107668000Y-124593819D02*
X107668000Y-123593819D01*
X107668000Y-123593819D02*
X107572762Y-123736676D01*
X107572762Y-123736676D02*
X107477524Y-123831914D01*
X107477524Y-123831914D02*
X107382286Y-123879533D01*
D11*
X133228842Y-107012619D02*
X133289318Y-106831190D01*
X133289318Y-106831190D02*
X133289318Y-106528809D01*
X133289318Y-106528809D02*
X133228842Y-106407857D01*
X133228842Y-106407857D02*
X133168365Y-106347381D01*
X133168365Y-106347381D02*
X133047413Y-106286904D01*
X133047413Y-106286904D02*
X132926461Y-106286904D01*
X132926461Y-106286904D02*
X132805508Y-106347381D01*
X132805508Y-106347381D02*
X132745032Y-106407857D01*
X132745032Y-106407857D02*
X132684556Y-106528809D01*
X132684556Y-106528809D02*
X132624080Y-106770714D01*
X132624080Y-106770714D02*
X132563603Y-106891666D01*
X132563603Y-106891666D02*
X132503127Y-106952143D01*
X132503127Y-106952143D02*
X132382175Y-107012619D01*
X132382175Y-107012619D02*
X132261222Y-107012619D01*
X132261222Y-107012619D02*
X132140270Y-106952143D01*
X132140270Y-106952143D02*
X132079794Y-106891666D01*
X132079794Y-106891666D02*
X132019318Y-106770714D01*
X132019318Y-106770714D02*
X132019318Y-106468333D01*
X132019318Y-106468333D02*
X132079794Y-106286904D01*
X133289318Y-105077380D02*
X133289318Y-105803095D01*
X133289318Y-105440238D02*
X132019318Y-105440238D01*
X132019318Y-105440238D02*
X132200746Y-105561190D01*
X132200746Y-105561190D02*
X132321699Y-105682142D01*
X132321699Y-105682142D02*
X132382175Y-105803095D01*
D10*
X106626819Y-108751666D02*
X106150628Y-109084999D01*
X106626819Y-109323094D02*
X105626819Y-109323094D01*
X105626819Y-109323094D02*
X105626819Y-108942142D01*
X105626819Y-108942142D02*
X105674438Y-108846904D01*
X105674438Y-108846904D02*
X105722057Y-108799285D01*
X105722057Y-108799285D02*
X105817295Y-108751666D01*
X105817295Y-108751666D02*
X105960152Y-108751666D01*
X105960152Y-108751666D02*
X106055390Y-108799285D01*
X106055390Y-108799285D02*
X106103009Y-108846904D01*
X106103009Y-108846904D02*
X106150628Y-108942142D01*
X106150628Y-108942142D02*
X106150628Y-109323094D01*
X105626819Y-108418332D02*
X105626819Y-107799285D01*
X105626819Y-107799285D02*
X106007771Y-108132618D01*
X106007771Y-108132618D02*
X106007771Y-107989761D01*
X106007771Y-107989761D02*
X106055390Y-107894523D01*
X106055390Y-107894523D02*
X106103009Y-107846904D01*
X106103009Y-107846904D02*
X106198247Y-107799285D01*
X106198247Y-107799285D02*
X106436342Y-107799285D01*
X106436342Y-107799285D02*
X106531580Y-107846904D01*
X106531580Y-107846904D02*
X106579200Y-107894523D01*
X106579200Y-107894523D02*
X106626819Y-107989761D01*
X106626819Y-107989761D02*
X106626819Y-108275475D01*
X106626819Y-108275475D02*
X106579200Y-108370713D01*
X106579200Y-108370713D02*
X106531580Y-108418332D01*
X107912819Y-110926476D02*
X107912819Y-111116952D01*
X107912819Y-111116952D02*
X107960438Y-111212190D01*
X107960438Y-111212190D02*
X108008057Y-111259809D01*
X108008057Y-111259809D02*
X108150914Y-111355047D01*
X108150914Y-111355047D02*
X108341390Y-111402666D01*
X108341390Y-111402666D02*
X108722342Y-111402666D01*
X108722342Y-111402666D02*
X108817580Y-111355047D01*
X108817580Y-111355047D02*
X108865200Y-111307428D01*
X108865200Y-111307428D02*
X108912819Y-111212190D01*
X108912819Y-111212190D02*
X108912819Y-111021714D01*
X108912819Y-111021714D02*
X108865200Y-110926476D01*
X108865200Y-110926476D02*
X108817580Y-110878857D01*
X108817580Y-110878857D02*
X108722342Y-110831238D01*
X108722342Y-110831238D02*
X108484247Y-110831238D01*
X108484247Y-110831238D02*
X108389009Y-110878857D01*
X108389009Y-110878857D02*
X108341390Y-110926476D01*
X108341390Y-110926476D02*
X108293771Y-111021714D01*
X108293771Y-111021714D02*
X108293771Y-111212190D01*
X108293771Y-111212190D02*
X108341390Y-111307428D01*
X108341390Y-111307428D02*
X108389009Y-111355047D01*
X108389009Y-111355047D02*
X108484247Y-111402666D01*
X108341390Y-110259809D02*
X108293771Y-110355047D01*
X108293771Y-110355047D02*
X108246152Y-110402666D01*
X108246152Y-110402666D02*
X108150914Y-110450285D01*
X108150914Y-110450285D02*
X108103295Y-110450285D01*
X108103295Y-110450285D02*
X108008057Y-110402666D01*
X108008057Y-110402666D02*
X107960438Y-110355047D01*
X107960438Y-110355047D02*
X107912819Y-110259809D01*
X107912819Y-110259809D02*
X107912819Y-110069333D01*
X107912819Y-110069333D02*
X107960438Y-109974095D01*
X107960438Y-109974095D02*
X108008057Y-109926476D01*
X108008057Y-109926476D02*
X108103295Y-109878857D01*
X108103295Y-109878857D02*
X108150914Y-109878857D01*
X108150914Y-109878857D02*
X108246152Y-109926476D01*
X108246152Y-109926476D02*
X108293771Y-109974095D01*
X108293771Y-109974095D02*
X108341390Y-110069333D01*
X108341390Y-110069333D02*
X108341390Y-110259809D01*
X108341390Y-110259809D02*
X108389009Y-110355047D01*
X108389009Y-110355047D02*
X108436628Y-110402666D01*
X108436628Y-110402666D02*
X108531866Y-110450285D01*
X108531866Y-110450285D02*
X108722342Y-110450285D01*
X108722342Y-110450285D02*
X108817580Y-110402666D01*
X108817580Y-110402666D02*
X108865200Y-110355047D01*
X108865200Y-110355047D02*
X108912819Y-110259809D01*
X108912819Y-110259809D02*
X108912819Y-110069333D01*
X108912819Y-110069333D02*
X108865200Y-109974095D01*
X108865200Y-109974095D02*
X108817580Y-109926476D01*
X108817580Y-109926476D02*
X108722342Y-109878857D01*
X108722342Y-109878857D02*
X108531866Y-109878857D01*
X108531866Y-109878857D02*
X108436628Y-109926476D01*
X108436628Y-109926476D02*
X108389009Y-109974095D01*
X108389009Y-109974095D02*
X108341390Y-110069333D01*
X108912819Y-109450285D02*
X107912819Y-109450285D01*
X108531866Y-109355047D02*
X108912819Y-109069333D01*
X108246152Y-109069333D02*
X108627104Y-109450285D01*
X116956153Y-108624666D02*
X116479962Y-108957999D01*
X116956153Y-109196094D02*
X115956153Y-109196094D01*
X115956153Y-109196094D02*
X115956153Y-108815142D01*
X115956153Y-108815142D02*
X116003772Y-108719904D01*
X116003772Y-108719904D02*
X116051391Y-108672285D01*
X116051391Y-108672285D02*
X116146629Y-108624666D01*
X116146629Y-108624666D02*
X116289486Y-108624666D01*
X116289486Y-108624666D02*
X116384724Y-108672285D01*
X116384724Y-108672285D02*
X116432343Y-108719904D01*
X116432343Y-108719904D02*
X116479962Y-108815142D01*
X116479962Y-108815142D02*
X116479962Y-109196094D01*
X116956153Y-107672285D02*
X116956153Y-108243713D01*
X116956153Y-107957999D02*
X115956153Y-107957999D01*
X115956153Y-107957999D02*
X116099010Y-108053237D01*
X116099010Y-108053237D02*
X116194248Y-108148475D01*
X116194248Y-108148475D02*
X116241867Y-108243713D01*
X119326819Y-110831238D02*
X119326819Y-111402666D01*
X119326819Y-111116952D02*
X118326819Y-111116952D01*
X118326819Y-111116952D02*
X118469676Y-111212190D01*
X118469676Y-111212190D02*
X118564914Y-111307428D01*
X118564914Y-111307428D02*
X118612533Y-111402666D01*
X119326819Y-110402666D02*
X118326819Y-110402666D01*
X118945866Y-110307428D02*
X119326819Y-110021714D01*
X118660152Y-110021714D02*
X119041104Y-110402666D01*
X109179676Y-120606381D02*
X108539676Y-120606381D01*
X108539676Y-120606381D02*
X108539676Y-120454000D01*
X108539676Y-120454000D02*
X108570152Y-120362571D01*
X108570152Y-120362571D02*
X108631104Y-120301619D01*
X108631104Y-120301619D02*
X108692057Y-120271142D01*
X108692057Y-120271142D02*
X108813961Y-120240666D01*
X108813961Y-120240666D02*
X108905390Y-120240666D01*
X108905390Y-120240666D02*
X109027295Y-120271142D01*
X109027295Y-120271142D02*
X109088247Y-120301619D01*
X109088247Y-120301619D02*
X109149200Y-120362571D01*
X109149200Y-120362571D02*
X109179676Y-120454000D01*
X109179676Y-120454000D02*
X109179676Y-120606381D01*
X109179676Y-119631142D02*
X109179676Y-119996857D01*
X109179676Y-119814000D02*
X108539676Y-119814000D01*
X108539676Y-119814000D02*
X108631104Y-119874952D01*
X108631104Y-119874952D02*
X108692057Y-119935904D01*
X108692057Y-119935904D02*
X108722533Y-119996857D01*
X102834580Y-120252476D02*
X102882200Y-120300095D01*
X102882200Y-120300095D02*
X102929819Y-120442952D01*
X102929819Y-120442952D02*
X102929819Y-120538190D01*
X102929819Y-120538190D02*
X102882200Y-120681047D01*
X102882200Y-120681047D02*
X102786961Y-120776285D01*
X102786961Y-120776285D02*
X102691723Y-120823904D01*
X102691723Y-120823904D02*
X102501247Y-120871523D01*
X102501247Y-120871523D02*
X102358390Y-120871523D01*
X102358390Y-120871523D02*
X102167914Y-120823904D01*
X102167914Y-120823904D02*
X102072676Y-120776285D01*
X102072676Y-120776285D02*
X101977438Y-120681047D01*
X101977438Y-120681047D02*
X101929819Y-120538190D01*
X101929819Y-120538190D02*
X101929819Y-120442952D01*
X101929819Y-120442952D02*
X101977438Y-120300095D01*
X101977438Y-120300095D02*
X102025057Y-120252476D01*
X111791485Y-108624666D02*
X111315294Y-108957999D01*
X111791485Y-109196094D02*
X110791485Y-109196094D01*
X110791485Y-109196094D02*
X110791485Y-108815142D01*
X110791485Y-108815142D02*
X110839104Y-108719904D01*
X110839104Y-108719904D02*
X110886723Y-108672285D01*
X110886723Y-108672285D02*
X110981961Y-108624666D01*
X110981961Y-108624666D02*
X111124818Y-108624666D01*
X111124818Y-108624666D02*
X111220056Y-108672285D01*
X111220056Y-108672285D02*
X111267675Y-108719904D01*
X111267675Y-108719904D02*
X111315294Y-108815142D01*
X111315294Y-108815142D02*
X111315294Y-109196094D01*
X110886723Y-108243713D02*
X110839104Y-108196094D01*
X110839104Y-108196094D02*
X110791485Y-108100856D01*
X110791485Y-108100856D02*
X110791485Y-107862761D01*
X110791485Y-107862761D02*
X110839104Y-107767523D01*
X110839104Y-107767523D02*
X110886723Y-107719904D01*
X110886723Y-107719904D02*
X110981961Y-107672285D01*
X110981961Y-107672285D02*
X111077199Y-107672285D01*
X111077199Y-107672285D02*
X111220056Y-107719904D01*
X111220056Y-107719904D02*
X111791485Y-108291332D01*
X111791485Y-108291332D02*
X111791485Y-107672285D01*
X112992819Y-110926476D02*
X112992819Y-111116952D01*
X112992819Y-111116952D02*
X113040438Y-111212190D01*
X113040438Y-111212190D02*
X113088057Y-111259809D01*
X113088057Y-111259809D02*
X113230914Y-111355047D01*
X113230914Y-111355047D02*
X113421390Y-111402666D01*
X113421390Y-111402666D02*
X113802342Y-111402666D01*
X113802342Y-111402666D02*
X113897580Y-111355047D01*
X113897580Y-111355047D02*
X113945200Y-111307428D01*
X113945200Y-111307428D02*
X113992819Y-111212190D01*
X113992819Y-111212190D02*
X113992819Y-111021714D01*
X113992819Y-111021714D02*
X113945200Y-110926476D01*
X113945200Y-110926476D02*
X113897580Y-110878857D01*
X113897580Y-110878857D02*
X113802342Y-110831238D01*
X113802342Y-110831238D02*
X113564247Y-110831238D01*
X113564247Y-110831238D02*
X113469009Y-110878857D01*
X113469009Y-110878857D02*
X113421390Y-110926476D01*
X113421390Y-110926476D02*
X113373771Y-111021714D01*
X113373771Y-111021714D02*
X113373771Y-111212190D01*
X113373771Y-111212190D02*
X113421390Y-111307428D01*
X113421390Y-111307428D02*
X113469009Y-111355047D01*
X113469009Y-111355047D02*
X113564247Y-111402666D01*
X113421390Y-110259809D02*
X113373771Y-110355047D01*
X113373771Y-110355047D02*
X113326152Y-110402666D01*
X113326152Y-110402666D02*
X113230914Y-110450285D01*
X113230914Y-110450285D02*
X113183295Y-110450285D01*
X113183295Y-110450285D02*
X113088057Y-110402666D01*
X113088057Y-110402666D02*
X113040438Y-110355047D01*
X113040438Y-110355047D02*
X112992819Y-110259809D01*
X112992819Y-110259809D02*
X112992819Y-110069333D01*
X112992819Y-110069333D02*
X113040438Y-109974095D01*
X113040438Y-109974095D02*
X113088057Y-109926476D01*
X113088057Y-109926476D02*
X113183295Y-109878857D01*
X113183295Y-109878857D02*
X113230914Y-109878857D01*
X113230914Y-109878857D02*
X113326152Y-109926476D01*
X113326152Y-109926476D02*
X113373771Y-109974095D01*
X113373771Y-109974095D02*
X113421390Y-110069333D01*
X113421390Y-110069333D02*
X113421390Y-110259809D01*
X113421390Y-110259809D02*
X113469009Y-110355047D01*
X113469009Y-110355047D02*
X113516628Y-110402666D01*
X113516628Y-110402666D02*
X113611866Y-110450285D01*
X113611866Y-110450285D02*
X113802342Y-110450285D01*
X113802342Y-110450285D02*
X113897580Y-110402666D01*
X113897580Y-110402666D02*
X113945200Y-110355047D01*
X113945200Y-110355047D02*
X113992819Y-110259809D01*
X113992819Y-110259809D02*
X113992819Y-110069333D01*
X113992819Y-110069333D02*
X113945200Y-109974095D01*
X113945200Y-109974095D02*
X113897580Y-109926476D01*
X113897580Y-109926476D02*
X113802342Y-109878857D01*
X113802342Y-109878857D02*
X113611866Y-109878857D01*
X113611866Y-109878857D02*
X113516628Y-109926476D01*
X113516628Y-109926476D02*
X113469009Y-109974095D01*
X113469009Y-109974095D02*
X113421390Y-110069333D01*
X113992819Y-109450285D02*
X112992819Y-109450285D01*
X113611866Y-109355047D02*
X113992819Y-109069333D01*
X113326152Y-109069333D02*
X113707104Y-109450285D01*
X121752676Y-120606381D02*
X121112676Y-120606381D01*
X121112676Y-120606381D02*
X121112676Y-120454000D01*
X121112676Y-120454000D02*
X121143152Y-120362571D01*
X121143152Y-120362571D02*
X121204104Y-120301619D01*
X121204104Y-120301619D02*
X121265057Y-120271142D01*
X121265057Y-120271142D02*
X121386961Y-120240666D01*
X121386961Y-120240666D02*
X121478390Y-120240666D01*
X121478390Y-120240666D02*
X121600295Y-120271142D01*
X121600295Y-120271142D02*
X121661247Y-120301619D01*
X121661247Y-120301619D02*
X121722200Y-120362571D01*
X121722200Y-120362571D02*
X121752676Y-120454000D01*
X121752676Y-120454000D02*
X121752676Y-120606381D01*
X121173628Y-119996857D02*
X121143152Y-119966381D01*
X121143152Y-119966381D02*
X121112676Y-119905428D01*
X121112676Y-119905428D02*
X121112676Y-119753047D01*
X121112676Y-119753047D02*
X121143152Y-119692095D01*
X121143152Y-119692095D02*
X121173628Y-119661619D01*
X121173628Y-119661619D02*
X121234580Y-119631142D01*
X121234580Y-119631142D02*
X121295533Y-119631142D01*
X121295533Y-119631142D02*
X121386961Y-119661619D01*
X121386961Y-119661619D02*
X121752676Y-120027333D01*
X121752676Y-120027333D02*
X121752676Y-119631142D01*
X115407580Y-120252476D02*
X115455200Y-120300095D01*
X115455200Y-120300095D02*
X115502819Y-120442952D01*
X115502819Y-120442952D02*
X115502819Y-120538190D01*
X115502819Y-120538190D02*
X115455200Y-120681047D01*
X115455200Y-120681047D02*
X115359961Y-120776285D01*
X115359961Y-120776285D02*
X115264723Y-120823904D01*
X115264723Y-120823904D02*
X115074247Y-120871523D01*
X115074247Y-120871523D02*
X114931390Y-120871523D01*
X114931390Y-120871523D02*
X114740914Y-120823904D01*
X114740914Y-120823904D02*
X114645676Y-120776285D01*
X114645676Y-120776285D02*
X114550438Y-120681047D01*
X114550438Y-120681047D02*
X114502819Y-120538190D01*
X114502819Y-120538190D02*
X114502819Y-120442952D01*
X114502819Y-120442952D02*
X114550438Y-120300095D01*
X114550438Y-120300095D02*
X114598057Y-120252476D01*
D12*
%TO.C,R4*%
X103251000Y-104672000D02*
X103251000Y-105442000D01*
X104621000Y-105442000D02*
X101881000Y-105442000D01*
X101881000Y-105442000D02*
X101881000Y-111982000D01*
X104621000Y-111982000D02*
X104621000Y-105442000D01*
X101881000Y-111982000D02*
X104621000Y-111982000D01*
X103251000Y-112752000D02*
X103251000Y-111982000D01*
%TO.C,C2*%
X117632775Y-129364000D02*
X117132775Y-129364000D01*
X117382775Y-129614000D02*
X117382775Y-129114000D01*
X114828000Y-130469000D02*
X114828000Y-125309000D01*
X114788000Y-130469000D02*
X114788000Y-125309000D01*
X114748000Y-130468000D02*
X114748000Y-125310000D01*
X114708000Y-130467000D02*
X114708000Y-125311000D01*
X114668000Y-130465000D02*
X114668000Y-125313000D01*
X114628000Y-130462000D02*
X114628000Y-125316000D01*
X114588000Y-130458000D02*
X114588000Y-128929000D01*
X114588000Y-126849000D02*
X114588000Y-125320000D01*
X114548000Y-130454000D02*
X114548000Y-128929000D01*
X114548000Y-126849000D02*
X114548000Y-125324000D01*
X114508000Y-130450000D02*
X114508000Y-128929000D01*
X114508000Y-126849000D02*
X114508000Y-125328000D01*
X114468000Y-130445000D02*
X114468000Y-128929000D01*
X114468000Y-126849000D02*
X114468000Y-125333000D01*
X114428000Y-130439000D02*
X114428000Y-128929000D01*
X114428000Y-126849000D02*
X114428000Y-125339000D01*
X114388000Y-130432000D02*
X114388000Y-128929000D01*
X114388000Y-126849000D02*
X114388000Y-125346000D01*
X114348000Y-130425000D02*
X114348000Y-128929000D01*
X114348000Y-126849000D02*
X114348000Y-125353000D01*
X114308000Y-130417000D02*
X114308000Y-128929000D01*
X114308000Y-126849000D02*
X114308000Y-125361000D01*
X114268000Y-130409000D02*
X114268000Y-128929000D01*
X114268000Y-126849000D02*
X114268000Y-125369000D01*
X114228000Y-130400000D02*
X114228000Y-128929000D01*
X114228000Y-126849000D02*
X114228000Y-125378000D01*
X114188000Y-130390000D02*
X114188000Y-128929000D01*
X114188000Y-126849000D02*
X114188000Y-125388000D01*
X114148000Y-130380000D02*
X114148000Y-128929000D01*
X114148000Y-126849000D02*
X114148000Y-125398000D01*
X114107000Y-130369000D02*
X114107000Y-128929000D01*
X114107000Y-126849000D02*
X114107000Y-125409000D01*
X114067000Y-130357000D02*
X114067000Y-128929000D01*
X114067000Y-126849000D02*
X114067000Y-125421000D01*
X114027000Y-130344000D02*
X114027000Y-128929000D01*
X114027000Y-126849000D02*
X114027000Y-125434000D01*
X113987000Y-130331000D02*
X113987000Y-128929000D01*
X113987000Y-126849000D02*
X113987000Y-125447000D01*
X113947000Y-130317000D02*
X113947000Y-128929000D01*
X113947000Y-126849000D02*
X113947000Y-125461000D01*
X113907000Y-130303000D02*
X113907000Y-128929000D01*
X113907000Y-126849000D02*
X113907000Y-125475000D01*
X113867000Y-130287000D02*
X113867000Y-128929000D01*
X113867000Y-126849000D02*
X113867000Y-125491000D01*
X113827000Y-130271000D02*
X113827000Y-128929000D01*
X113827000Y-126849000D02*
X113827000Y-125507000D01*
X113787000Y-130254000D02*
X113787000Y-128929000D01*
X113787000Y-126849000D02*
X113787000Y-125524000D01*
X113747000Y-130237000D02*
X113747000Y-128929000D01*
X113747000Y-126849000D02*
X113747000Y-125541000D01*
X113707000Y-130218000D02*
X113707000Y-128929000D01*
X113707000Y-126849000D02*
X113707000Y-125560000D01*
X113667000Y-130199000D02*
X113667000Y-128929000D01*
X113667000Y-126849000D02*
X113667000Y-125579000D01*
X113627000Y-130179000D02*
X113627000Y-128929000D01*
X113627000Y-126849000D02*
X113627000Y-125599000D01*
X113587000Y-130157000D02*
X113587000Y-128929000D01*
X113587000Y-126849000D02*
X113587000Y-125621000D01*
X113547000Y-130136000D02*
X113547000Y-128929000D01*
X113547000Y-126849000D02*
X113547000Y-125642000D01*
X113507000Y-130113000D02*
X113507000Y-128929000D01*
X113507000Y-126849000D02*
X113507000Y-125665000D01*
X113467000Y-130089000D02*
X113467000Y-128929000D01*
X113467000Y-126849000D02*
X113467000Y-125689000D01*
X113427000Y-130064000D02*
X113427000Y-128929000D01*
X113427000Y-126849000D02*
X113427000Y-125714000D01*
X113387000Y-130038000D02*
X113387000Y-128929000D01*
X113387000Y-126849000D02*
X113387000Y-125740000D01*
X113347000Y-130011000D02*
X113347000Y-128929000D01*
X113347000Y-126849000D02*
X113347000Y-125767000D01*
X113307000Y-129984000D02*
X113307000Y-128929000D01*
X113307000Y-126849000D02*
X113307000Y-125794000D01*
X113267000Y-129954000D02*
X113267000Y-128929000D01*
X113267000Y-126849000D02*
X113267000Y-125824000D01*
X113227000Y-129924000D02*
X113227000Y-128929000D01*
X113227000Y-126849000D02*
X113227000Y-125854000D01*
X113187000Y-129893000D02*
X113187000Y-128929000D01*
X113187000Y-126849000D02*
X113187000Y-125885000D01*
X113147000Y-129860000D02*
X113147000Y-128929000D01*
X113147000Y-126849000D02*
X113147000Y-125918000D01*
X113107000Y-129826000D02*
X113107000Y-128929000D01*
X113107000Y-126849000D02*
X113107000Y-125952000D01*
X113067000Y-129790000D02*
X113067000Y-128929000D01*
X113067000Y-126849000D02*
X113067000Y-125988000D01*
X113027000Y-129753000D02*
X113027000Y-128929000D01*
X113027000Y-126849000D02*
X113027000Y-126025000D01*
X112987000Y-129715000D02*
X112987000Y-128929000D01*
X112987000Y-126849000D02*
X112987000Y-126063000D01*
X112947000Y-129674000D02*
X112947000Y-128929000D01*
X112947000Y-126849000D02*
X112947000Y-126104000D01*
X112907000Y-129632000D02*
X112907000Y-128929000D01*
X112907000Y-126849000D02*
X112907000Y-126146000D01*
X112867000Y-129588000D02*
X112867000Y-128929000D01*
X112867000Y-126849000D02*
X112867000Y-126190000D01*
X112827000Y-129542000D02*
X112827000Y-128929000D01*
X112827000Y-126849000D02*
X112827000Y-126236000D01*
X112787000Y-129494000D02*
X112787000Y-128929000D01*
X112787000Y-126849000D02*
X112787000Y-126284000D01*
X112747000Y-129443000D02*
X112747000Y-128929000D01*
X112747000Y-126849000D02*
X112747000Y-126335000D01*
X112707000Y-129389000D02*
X112707000Y-128929000D01*
X112707000Y-126849000D02*
X112707000Y-126389000D01*
X112667000Y-129332000D02*
X112667000Y-128929000D01*
X112667000Y-126849000D02*
X112667000Y-126446000D01*
X112627000Y-129272000D02*
X112627000Y-128929000D01*
X112627000Y-126849000D02*
X112627000Y-126506000D01*
X112587000Y-129208000D02*
X112587000Y-128929000D01*
X112587000Y-126849000D02*
X112587000Y-126570000D01*
X112547000Y-129140000D02*
X112547000Y-128929000D01*
X112547000Y-126849000D02*
X112547000Y-126638000D01*
X112507000Y-129067000D02*
X112507000Y-126711000D01*
X112467000Y-128987000D02*
X112467000Y-126791000D01*
X112427000Y-128900000D02*
X112427000Y-126878000D01*
X112387000Y-128804000D02*
X112387000Y-126974000D01*
X112347000Y-128694000D02*
X112347000Y-127084000D01*
X112307000Y-128566000D02*
X112307000Y-127212000D01*
X112267000Y-128407000D02*
X112267000Y-127371000D01*
X112227000Y-128173000D02*
X112227000Y-127605000D01*
X117448000Y-127889000D02*
G75*
G03*
X117448000Y-127889000I-2620000J0D01*
G01*
D13*
%TO.C,BT1*%
X127992030Y-135305000D02*
X129815000Y-135305000D01*
X141443600Y-135305000D02*
X135615000Y-135305000D01*
X141443600Y-135305000D02*
X141443600Y-114095000D01*
X124973540Y-132434130D02*
X127992030Y-135305000D01*
X124973540Y-132434130D02*
X125323600Y-132066000D01*
X125323600Y-132066000D02*
X125323600Y-117334000D01*
X125323600Y-117334000D02*
X124973540Y-116965870D01*
X124973540Y-116965870D02*
X127992030Y-114095000D01*
X127992030Y-114095000D02*
X129815000Y-114095000D01*
X141443600Y-114095000D02*
X135615000Y-114095000D01*
D12*
%TO.C,C1*%
X104363225Y-126414000D02*
X104863225Y-126414000D01*
X104613225Y-126164000D02*
X104613225Y-126664000D01*
X107168000Y-125309000D02*
X107168000Y-130469000D01*
X107208000Y-125309000D02*
X107208000Y-130469000D01*
X107248000Y-125310000D02*
X107248000Y-130468000D01*
X107288000Y-125311000D02*
X107288000Y-130467000D01*
X107328000Y-125313000D02*
X107328000Y-130465000D01*
X107368000Y-125316000D02*
X107368000Y-130462000D01*
X107408000Y-125320000D02*
X107408000Y-126849000D01*
X107408000Y-128929000D02*
X107408000Y-130458000D01*
X107448000Y-125324000D02*
X107448000Y-126849000D01*
X107448000Y-128929000D02*
X107448000Y-130454000D01*
X107488000Y-125328000D02*
X107488000Y-126849000D01*
X107488000Y-128929000D02*
X107488000Y-130450000D01*
X107528000Y-125333000D02*
X107528000Y-126849000D01*
X107528000Y-128929000D02*
X107528000Y-130445000D01*
X107568000Y-125339000D02*
X107568000Y-126849000D01*
X107568000Y-128929000D02*
X107568000Y-130439000D01*
X107608000Y-125346000D02*
X107608000Y-126849000D01*
X107608000Y-128929000D02*
X107608000Y-130432000D01*
X107648000Y-125353000D02*
X107648000Y-126849000D01*
X107648000Y-128929000D02*
X107648000Y-130425000D01*
X107688000Y-125361000D02*
X107688000Y-126849000D01*
X107688000Y-128929000D02*
X107688000Y-130417000D01*
X107728000Y-125369000D02*
X107728000Y-126849000D01*
X107728000Y-128929000D02*
X107728000Y-130409000D01*
X107768000Y-125378000D02*
X107768000Y-126849000D01*
X107768000Y-128929000D02*
X107768000Y-130400000D01*
X107808000Y-125388000D02*
X107808000Y-126849000D01*
X107808000Y-128929000D02*
X107808000Y-130390000D01*
X107848000Y-125398000D02*
X107848000Y-126849000D01*
X107848000Y-128929000D02*
X107848000Y-130380000D01*
X107889000Y-125409000D02*
X107889000Y-126849000D01*
X107889000Y-128929000D02*
X107889000Y-130369000D01*
X107929000Y-125421000D02*
X107929000Y-126849000D01*
X107929000Y-128929000D02*
X107929000Y-130357000D01*
X107969000Y-125434000D02*
X107969000Y-126849000D01*
X107969000Y-128929000D02*
X107969000Y-130344000D01*
X108009000Y-125447000D02*
X108009000Y-126849000D01*
X108009000Y-128929000D02*
X108009000Y-130331000D01*
X108049000Y-125461000D02*
X108049000Y-126849000D01*
X108049000Y-128929000D02*
X108049000Y-130317000D01*
X108089000Y-125475000D02*
X108089000Y-126849000D01*
X108089000Y-128929000D02*
X108089000Y-130303000D01*
X108129000Y-125491000D02*
X108129000Y-126849000D01*
X108129000Y-128929000D02*
X108129000Y-130287000D01*
X108169000Y-125507000D02*
X108169000Y-126849000D01*
X108169000Y-128929000D02*
X108169000Y-130271000D01*
X108209000Y-125524000D02*
X108209000Y-126849000D01*
X108209000Y-128929000D02*
X108209000Y-130254000D01*
X108249000Y-125541000D02*
X108249000Y-126849000D01*
X108249000Y-128929000D02*
X108249000Y-130237000D01*
X108289000Y-125560000D02*
X108289000Y-126849000D01*
X108289000Y-128929000D02*
X108289000Y-130218000D01*
X108329000Y-125579000D02*
X108329000Y-126849000D01*
X108329000Y-128929000D02*
X108329000Y-130199000D01*
X108369000Y-125599000D02*
X108369000Y-126849000D01*
X108369000Y-128929000D02*
X108369000Y-130179000D01*
X108409000Y-125621000D02*
X108409000Y-126849000D01*
X108409000Y-128929000D02*
X108409000Y-130157000D01*
X108449000Y-125642000D02*
X108449000Y-126849000D01*
X108449000Y-128929000D02*
X108449000Y-130136000D01*
X108489000Y-125665000D02*
X108489000Y-126849000D01*
X108489000Y-128929000D02*
X108489000Y-130113000D01*
X108529000Y-125689000D02*
X108529000Y-126849000D01*
X108529000Y-128929000D02*
X108529000Y-130089000D01*
X108569000Y-125714000D02*
X108569000Y-126849000D01*
X108569000Y-128929000D02*
X108569000Y-130064000D01*
X108609000Y-125740000D02*
X108609000Y-126849000D01*
X108609000Y-128929000D02*
X108609000Y-130038000D01*
X108649000Y-125767000D02*
X108649000Y-126849000D01*
X108649000Y-128929000D02*
X108649000Y-130011000D01*
X108689000Y-125794000D02*
X108689000Y-126849000D01*
X108689000Y-128929000D02*
X108689000Y-129984000D01*
X108729000Y-125824000D02*
X108729000Y-126849000D01*
X108729000Y-128929000D02*
X108729000Y-129954000D01*
X108769000Y-125854000D02*
X108769000Y-126849000D01*
X108769000Y-128929000D02*
X108769000Y-129924000D01*
X108809000Y-125885000D02*
X108809000Y-126849000D01*
X108809000Y-128929000D02*
X108809000Y-129893000D01*
X108849000Y-125918000D02*
X108849000Y-126849000D01*
X108849000Y-128929000D02*
X108849000Y-129860000D01*
X108889000Y-125952000D02*
X108889000Y-126849000D01*
X108889000Y-128929000D02*
X108889000Y-129826000D01*
X108929000Y-125988000D02*
X108929000Y-126849000D01*
X108929000Y-128929000D02*
X108929000Y-129790000D01*
X108969000Y-126025000D02*
X108969000Y-126849000D01*
X108969000Y-128929000D02*
X108969000Y-129753000D01*
X109009000Y-126063000D02*
X109009000Y-126849000D01*
X109009000Y-128929000D02*
X109009000Y-129715000D01*
X109049000Y-126104000D02*
X109049000Y-126849000D01*
X109049000Y-128929000D02*
X109049000Y-129674000D01*
X109089000Y-126146000D02*
X109089000Y-126849000D01*
X109089000Y-128929000D02*
X109089000Y-129632000D01*
X109129000Y-126190000D02*
X109129000Y-126849000D01*
X109129000Y-128929000D02*
X109129000Y-129588000D01*
X109169000Y-126236000D02*
X109169000Y-126849000D01*
X109169000Y-128929000D02*
X109169000Y-129542000D01*
X109209000Y-126284000D02*
X109209000Y-126849000D01*
X109209000Y-128929000D02*
X109209000Y-129494000D01*
X109249000Y-126335000D02*
X109249000Y-126849000D01*
X109249000Y-128929000D02*
X109249000Y-129443000D01*
X109289000Y-126389000D02*
X109289000Y-126849000D01*
X109289000Y-128929000D02*
X109289000Y-129389000D01*
X109329000Y-126446000D02*
X109329000Y-126849000D01*
X109329000Y-128929000D02*
X109329000Y-129332000D01*
X109369000Y-126506000D02*
X109369000Y-126849000D01*
X109369000Y-128929000D02*
X109369000Y-129272000D01*
X109409000Y-126570000D02*
X109409000Y-126849000D01*
X109409000Y-128929000D02*
X109409000Y-129208000D01*
X109449000Y-126638000D02*
X109449000Y-126849000D01*
X109449000Y-128929000D02*
X109449000Y-129140000D01*
X109489000Y-126711000D02*
X109489000Y-129067000D01*
X109529000Y-126791000D02*
X109529000Y-128987000D01*
X109569000Y-126878000D02*
X109569000Y-128900000D01*
X109609000Y-126974000D02*
X109609000Y-128804000D01*
X109649000Y-127084000D02*
X109649000Y-128694000D01*
X109689000Y-127212000D02*
X109689000Y-128566000D01*
X109729000Y-127371000D02*
X109729000Y-128407000D01*
X109769000Y-127605000D02*
X109769000Y-128173000D01*
X109788000Y-127889000D02*
G75*
G03*
X109788000Y-127889000I-2620000J0D01*
G01*
D14*
%TO.C,S1*%
X127385000Y-108025000D02*
X127385000Y-104065000D01*
X137285000Y-108025000D02*
X127385000Y-108025000D01*
D15*
X137945000Y-106045000D02*
X137945000Y-106045000D01*
X138045000Y-106045000D02*
X138045000Y-106045000D01*
X138045000Y-106045000D02*
X138045000Y-106045000D01*
D14*
X127385000Y-104065000D02*
X137285000Y-104065000D01*
X137285000Y-104065000D02*
X137285000Y-108025000D01*
D15*
X138045000Y-106045000D02*
G75*
G03*
X137945000Y-106045000I-50000J0D01*
G01*
X138045000Y-106045000D02*
G75*
G03*
X137945000Y-106045000I-50000J0D01*
G01*
X137945000Y-106045000D02*
G75*
G03*
X138045000Y-106045000I50000J0D01*
G01*
D14*
%TO.C,Q2*%
X117374900Y-136463998D02*
X113511100Y-136463998D01*
X117544900Y-134075048D02*
G75*
G03*
X113340548Y-134076152I-2101900J-1050949D01*
G01*
D12*
%TO.C,R3*%
X108415666Y-104672000D02*
X108415666Y-105442000D01*
X109785666Y-105442000D02*
X107045666Y-105442000D01*
X107045666Y-105442000D02*
X107045666Y-111982000D01*
X109785666Y-111982000D02*
X109785666Y-105442000D01*
X107045666Y-111982000D02*
X109785666Y-111982000D01*
X108415666Y-112752000D02*
X108415666Y-111982000D01*
%TO.C,R1*%
X118745000Y-104672000D02*
X118745000Y-105442000D01*
X120115000Y-105442000D02*
X117375000Y-105442000D01*
X117375000Y-105442000D02*
X117375000Y-111982000D01*
X120115000Y-111982000D02*
X120115000Y-105442000D01*
X117375000Y-111982000D02*
X120115000Y-111982000D01*
X118745000Y-112752000D02*
X118745000Y-111982000D01*
D13*
%TO.C,D1*%
X106950000Y-119942000D02*
X106450000Y-120442000D01*
X106450000Y-119942000D02*
X106450000Y-119442000D01*
X106450000Y-119942000D02*
X106950000Y-119942000D01*
X105950000Y-119942000D02*
X106450000Y-119942000D01*
X106450000Y-120442000D02*
X105950000Y-119942000D01*
X106450000Y-120442000D02*
X106950000Y-120442000D01*
X106450000Y-120442000D02*
X105950000Y-120442000D01*
X106450000Y-120942000D02*
X106450000Y-120442000D01*
X106775000Y-122342000D02*
X102775000Y-122342000D01*
X106774999Y-122341999D02*
G75*
G03*
X102775001Y-122341999I-1999999J2200014D01*
G01*
X106774999Y-122341999D02*
G75*
G03*
X102775001Y-122341999I-1999999J2200014D01*
G01*
D14*
%TO.C,Q1*%
X108230900Y-136463998D02*
X104367100Y-136463998D01*
X108400900Y-134075048D02*
G75*
G03*
X104196548Y-134076152I-2101900J-1050949D01*
G01*
D12*
%TO.C,R2*%
X113580332Y-104672000D02*
X113580332Y-105442000D01*
X114950332Y-105442000D02*
X112210332Y-105442000D01*
X112210332Y-105442000D02*
X112210332Y-111982000D01*
X114950332Y-111982000D02*
X114950332Y-105442000D01*
X112210332Y-111982000D02*
X114950332Y-111982000D01*
X113580332Y-112752000D02*
X113580332Y-111982000D01*
D13*
%TO.C,D2*%
X119523000Y-119942000D02*
X119023000Y-120442000D01*
X119023000Y-119942000D02*
X119023000Y-119442000D01*
X119023000Y-119942000D02*
X119523000Y-119942000D01*
X118523000Y-119942000D02*
X119023000Y-119942000D01*
X119023000Y-120442000D02*
X118523000Y-119942000D01*
X119023000Y-120442000D02*
X119523000Y-120442000D01*
X119023000Y-120442000D02*
X118523000Y-120442000D01*
X119023000Y-120942000D02*
X119023000Y-120442000D01*
X119348000Y-122342000D02*
X115348000Y-122342000D01*
X119347999Y-122341999D02*
G75*
G03*
X115348001Y-122341999I-1999999J2200014D01*
G01*
X119347999Y-122341999D02*
G75*
G03*
X115348001Y-122341999I-1999999J2200014D01*
G01*
%TD*%
M02*
