%TF.GenerationSoftware,KiCad,Pcbnew,7.0.7*%
%TF.CreationDate,2023-10-13T15:54:56-04:00*%
%TF.ProjectId,project1,70726f6a-6563-4743-912e-6b696361645f,rev?*%
%TF.SameCoordinates,Original*%
%TF.FileFunction,Legend,Bot*%
%TF.FilePolarity,Positive*%
%FSLAX46Y46*%
G04 Gerber Fmt 4.6, Leading zero omitted, Abs format (unit mm)*
G04 Created by KiCad (PCBNEW 7.0.7) date 2023-10-13 15:54:56*
%MOMM*%
%LPD*%
G01*
G04 APERTURE LIST*
%ADD10C,0.300000*%
G04 APERTURE END LIST*
D10*
X139729114Y-102781510D02*
X139729114Y-102281510D01*
X140514828Y-102281510D02*
X139014828Y-102281510D01*
X139014828Y-102281510D02*
X139014828Y-102995796D01*
X140514828Y-103781510D02*
X140443400Y-103638653D01*
X140443400Y-103638653D02*
X140300542Y-103567224D01*
X140300542Y-103567224D02*
X139014828Y-103567224D01*
X140514828Y-104567224D02*
X140443400Y-104424367D01*
X140443400Y-104424367D02*
X140371971Y-104352938D01*
X140371971Y-104352938D02*
X140229114Y-104281510D01*
X140229114Y-104281510D02*
X139800542Y-104281510D01*
X139800542Y-104281510D02*
X139657685Y-104352938D01*
X139657685Y-104352938D02*
X139586257Y-104424367D01*
X139586257Y-104424367D02*
X139514828Y-104567224D01*
X139514828Y-104567224D02*
X139514828Y-104781510D01*
X139514828Y-104781510D02*
X139586257Y-104924367D01*
X139586257Y-104924367D02*
X139657685Y-104995796D01*
X139657685Y-104995796D02*
X139800542Y-105067224D01*
X139800542Y-105067224D02*
X140229114Y-105067224D01*
X140229114Y-105067224D02*
X140371971Y-104995796D01*
X140371971Y-104995796D02*
X140443400Y-104924367D01*
X140443400Y-104924367D02*
X140514828Y-104781510D01*
X140514828Y-104781510D02*
X140514828Y-104567224D01*
X140514828Y-105710081D02*
X139514828Y-105710081D01*
X139800542Y-105710081D02*
X139657685Y-105781510D01*
X139657685Y-105781510D02*
X139586257Y-105852939D01*
X139586257Y-105852939D02*
X139514828Y-105995796D01*
X139514828Y-105995796D02*
X139514828Y-106138653D01*
X140514828Y-106638652D02*
X139514828Y-106638652D01*
X139014828Y-106638652D02*
X139086257Y-106567224D01*
X139086257Y-106567224D02*
X139157685Y-106638652D01*
X139157685Y-106638652D02*
X139086257Y-106710081D01*
X139086257Y-106710081D02*
X139014828Y-106638652D01*
X139014828Y-106638652D02*
X139157685Y-106638652D01*
X140514828Y-107995796D02*
X139014828Y-107995796D01*
X140443400Y-107995796D02*
X140514828Y-107852938D01*
X140514828Y-107852938D02*
X140514828Y-107567224D01*
X140514828Y-107567224D02*
X140443400Y-107424367D01*
X140443400Y-107424367D02*
X140371971Y-107352938D01*
X140371971Y-107352938D02*
X140229114Y-107281510D01*
X140229114Y-107281510D02*
X139800542Y-107281510D01*
X139800542Y-107281510D02*
X139657685Y-107352938D01*
X139657685Y-107352938D02*
X139586257Y-107424367D01*
X139586257Y-107424367D02*
X139514828Y-107567224D01*
X139514828Y-107567224D02*
X139514828Y-107852938D01*
X139514828Y-107852938D02*
X139586257Y-107995796D01*
X140514828Y-109352939D02*
X139729114Y-109352939D01*
X139729114Y-109352939D02*
X139586257Y-109281510D01*
X139586257Y-109281510D02*
X139514828Y-109138653D01*
X139514828Y-109138653D02*
X139514828Y-108852939D01*
X139514828Y-108852939D02*
X139586257Y-108710081D01*
X140443400Y-109352939D02*
X140514828Y-109210081D01*
X140514828Y-109210081D02*
X140514828Y-108852939D01*
X140514828Y-108852939D02*
X140443400Y-108710081D01*
X140443400Y-108710081D02*
X140300542Y-108638653D01*
X140300542Y-108638653D02*
X140157685Y-108638653D01*
X140157685Y-108638653D02*
X140014828Y-108710081D01*
X140014828Y-108710081D02*
X139943400Y-108852939D01*
X139943400Y-108852939D02*
X139943400Y-109210081D01*
X139943400Y-109210081D02*
X139871971Y-109352939D01*
X140514828Y-111210081D02*
X139014828Y-111210081D01*
X139014828Y-111210081D02*
X139014828Y-111781510D01*
X139014828Y-111781510D02*
X139086257Y-111924367D01*
X139086257Y-111924367D02*
X139157685Y-111995796D01*
X139157685Y-111995796D02*
X139300542Y-112067224D01*
X139300542Y-112067224D02*
X139514828Y-112067224D01*
X139514828Y-112067224D02*
X139657685Y-111995796D01*
X139657685Y-111995796D02*
X139729114Y-111924367D01*
X139729114Y-111924367D02*
X139800542Y-111781510D01*
X139800542Y-111781510D02*
X139800542Y-111210081D01*
X140514828Y-112924367D02*
X140443400Y-112781510D01*
X140443400Y-112781510D02*
X140371971Y-112710081D01*
X140371971Y-112710081D02*
X140229114Y-112638653D01*
X140229114Y-112638653D02*
X139800542Y-112638653D01*
X139800542Y-112638653D02*
X139657685Y-112710081D01*
X139657685Y-112710081D02*
X139586257Y-112781510D01*
X139586257Y-112781510D02*
X139514828Y-112924367D01*
X139514828Y-112924367D02*
X139514828Y-113138653D01*
X139514828Y-113138653D02*
X139586257Y-113281510D01*
X139586257Y-113281510D02*
X139657685Y-113352939D01*
X139657685Y-113352939D02*
X139800542Y-113424367D01*
X139800542Y-113424367D02*
X140229114Y-113424367D01*
X140229114Y-113424367D02*
X140371971Y-113352939D01*
X140371971Y-113352939D02*
X140443400Y-113281510D01*
X140443400Y-113281510D02*
X140514828Y-113138653D01*
X140514828Y-113138653D02*
X140514828Y-112924367D01*
X140514828Y-114281510D02*
X140443400Y-114138653D01*
X140443400Y-114138653D02*
X140300542Y-114067224D01*
X140300542Y-114067224D02*
X139014828Y-114067224D01*
X139514828Y-114710081D02*
X140514828Y-115067224D01*
X139514828Y-115424367D02*
X140514828Y-115067224D01*
X140514828Y-115067224D02*
X140871971Y-114924367D01*
X140871971Y-114924367D02*
X140943400Y-114852938D01*
X140943400Y-114852938D02*
X141014828Y-114710081D01*
X139514828Y-115781510D02*
X139514828Y-116352938D01*
X139014828Y-115995795D02*
X140300542Y-115995795D01*
X140300542Y-115995795D02*
X140443400Y-116067224D01*
X140443400Y-116067224D02*
X140514828Y-116210081D01*
X140514828Y-116210081D02*
X140514828Y-116352938D01*
X140443400Y-117424367D02*
X140514828Y-117281510D01*
X140514828Y-117281510D02*
X140514828Y-116995796D01*
X140514828Y-116995796D02*
X140443400Y-116852938D01*
X140443400Y-116852938D02*
X140300542Y-116781510D01*
X140300542Y-116781510D02*
X139729114Y-116781510D01*
X139729114Y-116781510D02*
X139586257Y-116852938D01*
X139586257Y-116852938D02*
X139514828Y-116995796D01*
X139514828Y-116995796D02*
X139514828Y-117281510D01*
X139514828Y-117281510D02*
X139586257Y-117424367D01*
X139586257Y-117424367D02*
X139729114Y-117495796D01*
X139729114Y-117495796D02*
X139871971Y-117495796D01*
X139871971Y-117495796D02*
X140014828Y-116781510D01*
X140443400Y-118781510D02*
X140514828Y-118638652D01*
X140514828Y-118638652D02*
X140514828Y-118352938D01*
X140514828Y-118352938D02*
X140443400Y-118210081D01*
X140443400Y-118210081D02*
X140371971Y-118138652D01*
X140371971Y-118138652D02*
X140229114Y-118067224D01*
X140229114Y-118067224D02*
X139800542Y-118067224D01*
X139800542Y-118067224D02*
X139657685Y-118138652D01*
X139657685Y-118138652D02*
X139586257Y-118210081D01*
X139586257Y-118210081D02*
X139514828Y-118352938D01*
X139514828Y-118352938D02*
X139514828Y-118638652D01*
X139514828Y-118638652D02*
X139586257Y-118781510D01*
X140514828Y-119424366D02*
X139014828Y-119424366D01*
X140514828Y-120067224D02*
X139729114Y-120067224D01*
X139729114Y-120067224D02*
X139586257Y-119995795D01*
X139586257Y-119995795D02*
X139514828Y-119852938D01*
X139514828Y-119852938D02*
X139514828Y-119638652D01*
X139514828Y-119638652D02*
X139586257Y-119495795D01*
X139586257Y-119495795D02*
X139657685Y-119424366D01*
X139514828Y-120781509D02*
X140514828Y-120781509D01*
X139657685Y-120781509D02*
X139586257Y-120852938D01*
X139586257Y-120852938D02*
X139514828Y-120995795D01*
X139514828Y-120995795D02*
X139514828Y-121210081D01*
X139514828Y-121210081D02*
X139586257Y-121352938D01*
X139586257Y-121352938D02*
X139729114Y-121424367D01*
X139729114Y-121424367D02*
X140514828Y-121424367D01*
X140514828Y-122138652D02*
X139514828Y-122138652D01*
X139014828Y-122138652D02*
X139086257Y-122067224D01*
X139086257Y-122067224D02*
X139157685Y-122138652D01*
X139157685Y-122138652D02*
X139086257Y-122210081D01*
X139086257Y-122210081D02*
X139014828Y-122138652D01*
X139014828Y-122138652D02*
X139157685Y-122138652D01*
X140443400Y-123495796D02*
X140514828Y-123352938D01*
X140514828Y-123352938D02*
X140514828Y-123067224D01*
X140514828Y-123067224D02*
X140443400Y-122924367D01*
X140443400Y-122924367D02*
X140371971Y-122852938D01*
X140371971Y-122852938D02*
X140229114Y-122781510D01*
X140229114Y-122781510D02*
X139800542Y-122781510D01*
X139800542Y-122781510D02*
X139657685Y-122852938D01*
X139657685Y-122852938D02*
X139586257Y-122924367D01*
X139586257Y-122924367D02*
X139514828Y-123067224D01*
X139514828Y-123067224D02*
X139514828Y-123352938D01*
X139514828Y-123352938D02*
X139586257Y-123495796D01*
X139014828Y-125281509D02*
X140229114Y-125281509D01*
X140229114Y-125281509D02*
X140371971Y-125352938D01*
X140371971Y-125352938D02*
X140443400Y-125424367D01*
X140443400Y-125424367D02*
X140514828Y-125567224D01*
X140514828Y-125567224D02*
X140514828Y-125852938D01*
X140514828Y-125852938D02*
X140443400Y-125995795D01*
X140443400Y-125995795D02*
X140371971Y-126067224D01*
X140371971Y-126067224D02*
X140229114Y-126138652D01*
X140229114Y-126138652D02*
X139014828Y-126138652D01*
X139514828Y-126852938D02*
X140514828Y-126852938D01*
X139657685Y-126852938D02*
X139586257Y-126924367D01*
X139586257Y-126924367D02*
X139514828Y-127067224D01*
X139514828Y-127067224D02*
X139514828Y-127281510D01*
X139514828Y-127281510D02*
X139586257Y-127424367D01*
X139586257Y-127424367D02*
X139729114Y-127495796D01*
X139729114Y-127495796D02*
X140514828Y-127495796D01*
X140514828Y-128210081D02*
X139514828Y-128210081D01*
X139014828Y-128210081D02*
X139086257Y-128138653D01*
X139086257Y-128138653D02*
X139157685Y-128210081D01*
X139157685Y-128210081D02*
X139086257Y-128281510D01*
X139086257Y-128281510D02*
X139014828Y-128210081D01*
X139014828Y-128210081D02*
X139157685Y-128210081D01*
X139514828Y-128781510D02*
X140514828Y-129138653D01*
X140514828Y-129138653D02*
X139514828Y-129495796D01*
X140443400Y-130638653D02*
X140514828Y-130495796D01*
X140514828Y-130495796D02*
X140514828Y-130210082D01*
X140514828Y-130210082D02*
X140443400Y-130067224D01*
X140443400Y-130067224D02*
X140300542Y-129995796D01*
X140300542Y-129995796D02*
X139729114Y-129995796D01*
X139729114Y-129995796D02*
X139586257Y-130067224D01*
X139586257Y-130067224D02*
X139514828Y-130210082D01*
X139514828Y-130210082D02*
X139514828Y-130495796D01*
X139514828Y-130495796D02*
X139586257Y-130638653D01*
X139586257Y-130638653D02*
X139729114Y-130710082D01*
X139729114Y-130710082D02*
X139871971Y-130710082D01*
X139871971Y-130710082D02*
X140014828Y-129995796D01*
X140514828Y-131352938D02*
X139514828Y-131352938D01*
X139800542Y-131352938D02*
X139657685Y-131424367D01*
X139657685Y-131424367D02*
X139586257Y-131495796D01*
X139586257Y-131495796D02*
X139514828Y-131638653D01*
X139514828Y-131638653D02*
X139514828Y-131781510D01*
X140443400Y-132210081D02*
X140514828Y-132352938D01*
X140514828Y-132352938D02*
X140514828Y-132638652D01*
X140514828Y-132638652D02*
X140443400Y-132781509D01*
X140443400Y-132781509D02*
X140300542Y-132852938D01*
X140300542Y-132852938D02*
X140229114Y-132852938D01*
X140229114Y-132852938D02*
X140086257Y-132781509D01*
X140086257Y-132781509D02*
X140014828Y-132638652D01*
X140014828Y-132638652D02*
X140014828Y-132424367D01*
X140014828Y-132424367D02*
X139943400Y-132281509D01*
X139943400Y-132281509D02*
X139800542Y-132210081D01*
X139800542Y-132210081D02*
X139729114Y-132210081D01*
X139729114Y-132210081D02*
X139586257Y-132281509D01*
X139586257Y-132281509D02*
X139514828Y-132424367D01*
X139514828Y-132424367D02*
X139514828Y-132638652D01*
X139514828Y-132638652D02*
X139586257Y-132781509D01*
X140514828Y-133495795D02*
X139514828Y-133495795D01*
X139014828Y-133495795D02*
X139086257Y-133424367D01*
X139086257Y-133424367D02*
X139157685Y-133495795D01*
X139157685Y-133495795D02*
X139086257Y-133567224D01*
X139086257Y-133567224D02*
X139014828Y-133495795D01*
X139014828Y-133495795D02*
X139157685Y-133495795D01*
X139514828Y-133995796D02*
X139514828Y-134567224D01*
X139014828Y-134210081D02*
X140300542Y-134210081D01*
X140300542Y-134210081D02*
X140443400Y-134281510D01*
X140443400Y-134281510D02*
X140514828Y-134424367D01*
X140514828Y-134424367D02*
X140514828Y-134567224D01*
X139514828Y-134924367D02*
X140514828Y-135281510D01*
X139514828Y-135638653D02*
X140514828Y-135281510D01*
X140514828Y-135281510D02*
X140871971Y-135138653D01*
X140871971Y-135138653D02*
X140943400Y-135067224D01*
X140943400Y-135067224D02*
X141014828Y-134924367D01*
X142858400Y-102210082D02*
X142929828Y-102424368D01*
X142929828Y-102424368D02*
X142929828Y-102781510D01*
X142929828Y-102781510D02*
X142858400Y-102924368D01*
X142858400Y-102924368D02*
X142786971Y-102995796D01*
X142786971Y-102995796D02*
X142644114Y-103067225D01*
X142644114Y-103067225D02*
X142501257Y-103067225D01*
X142501257Y-103067225D02*
X142358400Y-102995796D01*
X142358400Y-102995796D02*
X142286971Y-102924368D01*
X142286971Y-102924368D02*
X142215542Y-102781510D01*
X142215542Y-102781510D02*
X142144114Y-102495796D01*
X142144114Y-102495796D02*
X142072685Y-102352939D01*
X142072685Y-102352939D02*
X142001257Y-102281510D01*
X142001257Y-102281510D02*
X141858400Y-102210082D01*
X141858400Y-102210082D02*
X141715542Y-102210082D01*
X141715542Y-102210082D02*
X141572685Y-102281510D01*
X141572685Y-102281510D02*
X141501257Y-102352939D01*
X141501257Y-102352939D02*
X141429828Y-102495796D01*
X141429828Y-102495796D02*
X141429828Y-102852939D01*
X141429828Y-102852939D02*
X141501257Y-103067225D01*
X142929828Y-103710081D02*
X141429828Y-103710081D01*
X142358400Y-103852939D02*
X142929828Y-104281510D01*
X141929828Y-104281510D02*
X142501257Y-103710081D01*
X142929828Y-104924367D02*
X141929828Y-104924367D01*
X141429828Y-104924367D02*
X141501257Y-104852939D01*
X141501257Y-104852939D02*
X141572685Y-104924367D01*
X141572685Y-104924367D02*
X141501257Y-104995796D01*
X141501257Y-104995796D02*
X141429828Y-104924367D01*
X141429828Y-104924367D02*
X141572685Y-104924367D01*
X142929828Y-105852939D02*
X142858400Y-105710082D01*
X142858400Y-105710082D02*
X142715542Y-105638653D01*
X142715542Y-105638653D02*
X141429828Y-105638653D01*
X142929828Y-106638653D02*
X142858400Y-106495796D01*
X142858400Y-106495796D02*
X142715542Y-106424367D01*
X142715542Y-106424367D02*
X141429828Y-106424367D01*
X142858400Y-107138653D02*
X142929828Y-107281510D01*
X142929828Y-107281510D02*
X142929828Y-107567224D01*
X142929828Y-107567224D02*
X142858400Y-107710081D01*
X142858400Y-107710081D02*
X142715542Y-107781510D01*
X142715542Y-107781510D02*
X142644114Y-107781510D01*
X142644114Y-107781510D02*
X142501257Y-107710081D01*
X142501257Y-107710081D02*
X142429828Y-107567224D01*
X142429828Y-107567224D02*
X142429828Y-107352939D01*
X142429828Y-107352939D02*
X142358400Y-107210081D01*
X142358400Y-107210081D02*
X142215542Y-107138653D01*
X142215542Y-107138653D02*
X142144114Y-107138653D01*
X142144114Y-107138653D02*
X142001257Y-107210081D01*
X142001257Y-107210081D02*
X141929828Y-107352939D01*
X141929828Y-107352939D02*
X141929828Y-107567224D01*
X141929828Y-107567224D02*
X142001257Y-107710081D01*
X142929828Y-110781510D02*
X142929828Y-110710082D01*
X142929828Y-110710082D02*
X142858400Y-110567224D01*
X142858400Y-110567224D02*
X142644114Y-110352939D01*
X142644114Y-110352939D02*
X142215542Y-109995796D01*
X142215542Y-109995796D02*
X142001257Y-109852939D01*
X142001257Y-109852939D02*
X141786971Y-109781510D01*
X141786971Y-109781510D02*
X141644114Y-109781510D01*
X141644114Y-109781510D02*
X141501257Y-109852939D01*
X141501257Y-109852939D02*
X141429828Y-109995796D01*
X141429828Y-109995796D02*
X141429828Y-110067224D01*
X141429828Y-110067224D02*
X141501257Y-110210082D01*
X141501257Y-110210082D02*
X141644114Y-110281510D01*
X141644114Y-110281510D02*
X141715542Y-110281510D01*
X141715542Y-110281510D02*
X141858400Y-110210082D01*
X141858400Y-110210082D02*
X141929828Y-110138653D01*
X141929828Y-110138653D02*
X142215542Y-109710082D01*
X142215542Y-109710082D02*
X142286971Y-109638653D01*
X142286971Y-109638653D02*
X142429828Y-109567224D01*
X142429828Y-109567224D02*
X142644114Y-109567224D01*
X142644114Y-109567224D02*
X142786971Y-109638653D01*
X142786971Y-109638653D02*
X142858400Y-109710082D01*
X142858400Y-109710082D02*
X142929828Y-109852939D01*
X142929828Y-109852939D02*
X142929828Y-110067224D01*
X142929828Y-110067224D02*
X142858400Y-110210082D01*
X142858400Y-110210082D02*
X142786971Y-110281510D01*
X142786971Y-110281510D02*
X142501257Y-110495796D01*
X142501257Y-110495796D02*
X142286971Y-110567224D01*
X142286971Y-110567224D02*
X142144114Y-110567224D01*
X142929828Y-112567224D02*
X141429828Y-112567224D01*
X141429828Y-112567224D02*
X141429828Y-112924367D01*
X141429828Y-112924367D02*
X141501257Y-113138653D01*
X141501257Y-113138653D02*
X141644114Y-113281510D01*
X141644114Y-113281510D02*
X141786971Y-113352939D01*
X141786971Y-113352939D02*
X142072685Y-113424367D01*
X142072685Y-113424367D02*
X142286971Y-113424367D01*
X142286971Y-113424367D02*
X142572685Y-113352939D01*
X142572685Y-113352939D02*
X142715542Y-113281510D01*
X142715542Y-113281510D02*
X142858400Y-113138653D01*
X142858400Y-113138653D02*
X142929828Y-112924367D01*
X142929828Y-112924367D02*
X142929828Y-112567224D01*
X142858400Y-114638653D02*
X142929828Y-114495796D01*
X142929828Y-114495796D02*
X142929828Y-114210082D01*
X142929828Y-114210082D02*
X142858400Y-114067224D01*
X142858400Y-114067224D02*
X142715542Y-113995796D01*
X142715542Y-113995796D02*
X142144114Y-113995796D01*
X142144114Y-113995796D02*
X142001257Y-114067224D01*
X142001257Y-114067224D02*
X141929828Y-114210082D01*
X141929828Y-114210082D02*
X141929828Y-114495796D01*
X141929828Y-114495796D02*
X142001257Y-114638653D01*
X142001257Y-114638653D02*
X142144114Y-114710082D01*
X142144114Y-114710082D02*
X142286971Y-114710082D01*
X142286971Y-114710082D02*
X142429828Y-113995796D01*
X142858400Y-115281510D02*
X142929828Y-115424367D01*
X142929828Y-115424367D02*
X142929828Y-115710081D01*
X142929828Y-115710081D02*
X142858400Y-115852938D01*
X142858400Y-115852938D02*
X142715542Y-115924367D01*
X142715542Y-115924367D02*
X142644114Y-115924367D01*
X142644114Y-115924367D02*
X142501257Y-115852938D01*
X142501257Y-115852938D02*
X142429828Y-115710081D01*
X142429828Y-115710081D02*
X142429828Y-115495796D01*
X142429828Y-115495796D02*
X142358400Y-115352938D01*
X142358400Y-115352938D02*
X142215542Y-115281510D01*
X142215542Y-115281510D02*
X142144114Y-115281510D01*
X142144114Y-115281510D02*
X142001257Y-115352938D01*
X142001257Y-115352938D02*
X141929828Y-115495796D01*
X141929828Y-115495796D02*
X141929828Y-115710081D01*
X141929828Y-115710081D02*
X142001257Y-115852938D01*
X142929828Y-116567224D02*
X141929828Y-116567224D01*
X141429828Y-116567224D02*
X141501257Y-116495796D01*
X141501257Y-116495796D02*
X141572685Y-116567224D01*
X141572685Y-116567224D02*
X141501257Y-116638653D01*
X141501257Y-116638653D02*
X141429828Y-116567224D01*
X141429828Y-116567224D02*
X141572685Y-116567224D01*
X141929828Y-117924368D02*
X143144114Y-117924368D01*
X143144114Y-117924368D02*
X143286971Y-117852939D01*
X143286971Y-117852939D02*
X143358400Y-117781510D01*
X143358400Y-117781510D02*
X143429828Y-117638653D01*
X143429828Y-117638653D02*
X143429828Y-117424368D01*
X143429828Y-117424368D02*
X143358400Y-117281510D01*
X142858400Y-117924368D02*
X142929828Y-117781510D01*
X142929828Y-117781510D02*
X142929828Y-117495796D01*
X142929828Y-117495796D02*
X142858400Y-117352939D01*
X142858400Y-117352939D02*
X142786971Y-117281510D01*
X142786971Y-117281510D02*
X142644114Y-117210082D01*
X142644114Y-117210082D02*
X142215542Y-117210082D01*
X142215542Y-117210082D02*
X142072685Y-117281510D01*
X142072685Y-117281510D02*
X142001257Y-117352939D01*
X142001257Y-117352939D02*
X141929828Y-117495796D01*
X141929828Y-117495796D02*
X141929828Y-117781510D01*
X141929828Y-117781510D02*
X142001257Y-117924368D01*
X141929828Y-118638653D02*
X142929828Y-118638653D01*
X142072685Y-118638653D02*
X142001257Y-118710082D01*
X142001257Y-118710082D02*
X141929828Y-118852939D01*
X141929828Y-118852939D02*
X141929828Y-119067225D01*
X141929828Y-119067225D02*
X142001257Y-119210082D01*
X142001257Y-119210082D02*
X142144114Y-119281511D01*
X142144114Y-119281511D02*
X142929828Y-119281511D01*
X142929828Y-121924368D02*
X142929828Y-121067225D01*
X142929828Y-121495796D02*
X141429828Y-121495796D01*
X141429828Y-121495796D02*
X141644114Y-121352939D01*
X141644114Y-121352939D02*
X141786971Y-121210082D01*
X141786971Y-121210082D02*
X141858400Y-121067225D01*
X142358400Y-123710081D02*
X142358400Y-124852939D01*
X142144114Y-126710081D02*
X142144114Y-127210081D01*
X142929828Y-127424367D02*
X142929828Y-126710081D01*
X142929828Y-126710081D02*
X141429828Y-126710081D01*
X141429828Y-126710081D02*
X141429828Y-127424367D01*
X141501257Y-128852939D02*
X141429828Y-128710082D01*
X141429828Y-128710082D02*
X141429828Y-128495796D01*
X141429828Y-128495796D02*
X141501257Y-128281510D01*
X141501257Y-128281510D02*
X141644114Y-128138653D01*
X141644114Y-128138653D02*
X141786971Y-128067224D01*
X141786971Y-128067224D02*
X142072685Y-127995796D01*
X142072685Y-127995796D02*
X142286971Y-127995796D01*
X142286971Y-127995796D02*
X142572685Y-128067224D01*
X142572685Y-128067224D02*
X142715542Y-128138653D01*
X142715542Y-128138653D02*
X142858400Y-128281510D01*
X142858400Y-128281510D02*
X142929828Y-128495796D01*
X142929828Y-128495796D02*
X142929828Y-128638653D01*
X142929828Y-128638653D02*
X142858400Y-128852939D01*
X142858400Y-128852939D02*
X142786971Y-128924367D01*
X142786971Y-128924367D02*
X142286971Y-128924367D01*
X142286971Y-128924367D02*
X142286971Y-128638653D01*
X142929828Y-129567224D02*
X141429828Y-129567224D01*
X141429828Y-129567224D02*
X142929828Y-130424367D01*
X142929828Y-130424367D02*
X141429828Y-130424367D01*
X141572685Y-131067225D02*
X141501257Y-131138653D01*
X141501257Y-131138653D02*
X141429828Y-131281511D01*
X141429828Y-131281511D02*
X141429828Y-131638653D01*
X141429828Y-131638653D02*
X141501257Y-131781511D01*
X141501257Y-131781511D02*
X141572685Y-131852939D01*
X141572685Y-131852939D02*
X141715542Y-131924368D01*
X141715542Y-131924368D02*
X141858400Y-131924368D01*
X141858400Y-131924368D02*
X142072685Y-131852939D01*
X142072685Y-131852939D02*
X142929828Y-130995796D01*
X142929828Y-130995796D02*
X142929828Y-131924368D01*
X141429828Y-132852939D02*
X141429828Y-132995796D01*
X141429828Y-132995796D02*
X141501257Y-133138653D01*
X141501257Y-133138653D02*
X141572685Y-133210082D01*
X141572685Y-133210082D02*
X141715542Y-133281510D01*
X141715542Y-133281510D02*
X142001257Y-133352939D01*
X142001257Y-133352939D02*
X142358400Y-133352939D01*
X142358400Y-133352939D02*
X142644114Y-133281510D01*
X142644114Y-133281510D02*
X142786971Y-133210082D01*
X142786971Y-133210082D02*
X142858400Y-133138653D01*
X142858400Y-133138653D02*
X142929828Y-132995796D01*
X142929828Y-132995796D02*
X142929828Y-132852939D01*
X142929828Y-132852939D02*
X142858400Y-132710082D01*
X142858400Y-132710082D02*
X142786971Y-132638653D01*
X142786971Y-132638653D02*
X142644114Y-132567224D01*
X142644114Y-132567224D02*
X142358400Y-132495796D01*
X142358400Y-132495796D02*
X142001257Y-132495796D01*
X142001257Y-132495796D02*
X141715542Y-132567224D01*
X141715542Y-132567224D02*
X141572685Y-132638653D01*
X141572685Y-132638653D02*
X141501257Y-132710082D01*
X141501257Y-132710082D02*
X141429828Y-132852939D01*
X141429828Y-134281510D02*
X141429828Y-134424367D01*
X141429828Y-134424367D02*
X141501257Y-134567224D01*
X141501257Y-134567224D02*
X141572685Y-134638653D01*
X141572685Y-134638653D02*
X141715542Y-134710081D01*
X141715542Y-134710081D02*
X142001257Y-134781510D01*
X142001257Y-134781510D02*
X142358400Y-134781510D01*
X142358400Y-134781510D02*
X142644114Y-134710081D01*
X142644114Y-134710081D02*
X142786971Y-134638653D01*
X142786971Y-134638653D02*
X142858400Y-134567224D01*
X142858400Y-134567224D02*
X142929828Y-134424367D01*
X142929828Y-134424367D02*
X142929828Y-134281510D01*
X142929828Y-134281510D02*
X142858400Y-134138653D01*
X142858400Y-134138653D02*
X142786971Y-134067224D01*
X142786971Y-134067224D02*
X142644114Y-133995795D01*
X142644114Y-133995795D02*
X142358400Y-133924367D01*
X142358400Y-133924367D02*
X142001257Y-133924367D01*
X142001257Y-133924367D02*
X141715542Y-133995795D01*
X141715542Y-133995795D02*
X141572685Y-134067224D01*
X141572685Y-134067224D02*
X141501257Y-134138653D01*
X141501257Y-134138653D02*
X141429828Y-134281510D01*
X142929828Y-136210081D02*
X142929828Y-135352938D01*
X142929828Y-135781509D02*
X141429828Y-135781509D01*
X141429828Y-135781509D02*
X141644114Y-135638652D01*
X141644114Y-135638652D02*
X141786971Y-135495795D01*
X141786971Y-135495795D02*
X141858400Y-135352938D01*
X142786971Y-137710080D02*
X142858400Y-137638652D01*
X142858400Y-137638652D02*
X142929828Y-137424366D01*
X142929828Y-137424366D02*
X142929828Y-137281509D01*
X142929828Y-137281509D02*
X142858400Y-137067223D01*
X142858400Y-137067223D02*
X142715542Y-136924366D01*
X142715542Y-136924366D02*
X142572685Y-136852937D01*
X142572685Y-136852937D02*
X142286971Y-136781509D01*
X142286971Y-136781509D02*
X142072685Y-136781509D01*
X142072685Y-136781509D02*
X141786971Y-136852937D01*
X141786971Y-136852937D02*
X141644114Y-136924366D01*
X141644114Y-136924366D02*
X141501257Y-137067223D01*
X141501257Y-137067223D02*
X141429828Y-137281509D01*
X141429828Y-137281509D02*
X141429828Y-137424366D01*
X141429828Y-137424366D02*
X141501257Y-137638652D01*
X141501257Y-137638652D02*
X141572685Y-137710080D01*
M02*
