%TF.GenerationSoftware,KiCad,Pcbnew,7.0.7*%
%TF.CreationDate,2023-10-13T15:54:55-04:00*%
%TF.ProjectId,project1,70726f6a-6563-4743-912e-6b696361645f,rev?*%
%TF.SameCoordinates,Original*%
%TF.FileFunction,Copper,L1,Top*%
%TF.FilePolarity,Positive*%
%FSLAX46Y46*%
G04 Gerber Fmt 4.6, Leading zero omitted, Abs format (unit mm)*
G04 Created by KiCad (PCBNEW 7.0.7) date 2023-10-13 15:54:55*
%MOMM*%
%LPD*%
G01*
G04 APERTURE LIST*
%TA.AperFunction,ComponentPad*%
%ADD10C,1.600000*%
%TD*%
%TA.AperFunction,ComponentPad*%
%ADD11O,1.600000X1.600000*%
%TD*%
%TA.AperFunction,ComponentPad*%
%ADD12R,1.600000X1.600000*%
%TD*%
%TA.AperFunction,SMDPad,CuDef*%
%ADD13R,3.960000X3.960000*%
%TD*%
%TA.AperFunction,SMDPad,CuDef*%
%ADD14R,5.080000X1.270000*%
%TD*%
%TA.AperFunction,ComponentPad*%
%ADD15C,1.575000*%
%TD*%
%TA.AperFunction,ComponentPad*%
%ADD16C,1.440000*%
%TD*%
%TA.AperFunction,ComponentPad*%
%ADD17C,1.508000*%
%TD*%
%TA.AperFunction,ViaPad*%
%ADD18C,0.800000*%
%TD*%
%TA.AperFunction,Conductor*%
%ADD19C,0.250000*%
%TD*%
G04 APERTURE END LIST*
D10*
%TO.P,R4,1*%
%TO.N,Net-(S1-NO)*%
X103251000Y-103632000D03*
D11*
%TO.P,R4,2*%
%TO.N,Net-(D1-Pad2)*%
X103251000Y-113792000D03*
%TD*%
D12*
%TO.P,C2,1*%
%TO.N,Net-(Q2-C)*%
X116078000Y-127889000D03*
D10*
%TO.P,C2,2*%
%TO.N,Net-(Q1-B)*%
X113578000Y-127889000D03*
%TD*%
D13*
%TO.P,BT1,N*%
%TO.N,/Neg*%
X132715000Y-124700000D03*
D14*
%TO.P,BT1,P1*%
%TO.N,Net-(S1-COM)*%
X132715000Y-135685000D03*
%TO.P,BT1,P2*%
X132715000Y-113715000D03*
%TD*%
D12*
%TO.P,C1,1*%
%TO.N,Net-(Q1-C)*%
X105918000Y-127889000D03*
D10*
%TO.P,C1,2*%
%TO.N,Net-(Q2-B)*%
X108418000Y-127889000D03*
%TD*%
D15*
%TO.P,S1,1,COM*%
%TO.N,Net-(S1-COM)*%
X136145000Y-106045000D03*
%TO.P,S1,2,NO*%
%TO.N,Net-(S1-NO)*%
X128525000Y-106045000D03*
%TD*%
D16*
%TO.P,Q2,1,C*%
%TO.N,Net-(Q2-C)*%
X112843000Y-135125998D03*
%TO.P,Q2,2,B*%
%TO.N,Net-(Q2-B)*%
X115443000Y-135125998D03*
%TO.P,Q2,3,E*%
%TO.N,/Neg*%
X118043000Y-135125998D03*
%TD*%
D10*
%TO.P,R3,1*%
%TO.N,Net-(S1-NO)*%
X108415666Y-103632000D03*
D11*
%TO.P,R3,2*%
%TO.N,Net-(Q2-B)*%
X108415666Y-113792000D03*
%TD*%
D10*
%TO.P,R1,1*%
%TO.N,Net-(S1-NO)*%
X118745000Y-103632000D03*
D11*
%TO.P,R1,2*%
%TO.N,Net-(D2-Pad2)*%
X118745000Y-113792000D03*
%TD*%
D17*
%TO.P,D1,1*%
%TO.N,Net-(Q1-C)*%
X104775000Y-121412000D03*
%TO.P,D1,2*%
%TO.N,Net-(D1-Pad2)*%
X104775000Y-118872000D03*
%TD*%
D16*
%TO.P,Q1,1,C*%
%TO.N,Net-(Q1-C)*%
X103699000Y-135125998D03*
%TO.P,Q1,2,B*%
%TO.N,Net-(Q1-B)*%
X106299000Y-135125998D03*
%TO.P,Q1,3,E*%
%TO.N,/Neg*%
X108899000Y-135125998D03*
%TD*%
D10*
%TO.P,R2,1*%
%TO.N,Net-(S1-NO)*%
X113580332Y-103632000D03*
D11*
%TO.P,R2,2*%
%TO.N,Net-(Q1-B)*%
X113580332Y-113792000D03*
%TD*%
D17*
%TO.P,D2,1*%
%TO.N,Net-(Q2-C)*%
X117348000Y-121412000D03*
%TO.P,D2,2*%
%TO.N,Net-(D2-Pad2)*%
X117348000Y-118872000D03*
%TD*%
D18*
%TO.N,Net-(S1-COM)*%
X133223000Y-137922000D03*
X132715000Y-111379000D03*
%TD*%
D19*
%TO.N,Net-(D1-Pad2)*%
X103251000Y-113792000D02*
X103251000Y-117348000D01*
X103251000Y-117348000D02*
X104775000Y-118872000D01*
%TO.N,Net-(Q1-C)*%
X105918000Y-122555000D02*
X105918000Y-127889000D01*
X104775000Y-121412000D02*
X105918000Y-122555000D01*
X105918000Y-127889000D02*
X105918000Y-132906998D01*
X105918000Y-132906998D02*
X103699000Y-135125998D01*
%TO.N,Net-(D2-Pad2)*%
X118745000Y-117475000D02*
X117348000Y-118872000D01*
X118745000Y-113792000D02*
X118745000Y-117475000D01*
%TO.N,Net-(Q2-C)*%
X117348000Y-121412000D02*
X116078000Y-122682000D01*
X116078000Y-122682000D02*
X116078000Y-127889000D01*
%TO.N,Net-(Q1-B)*%
X113580332Y-113792000D02*
X113580332Y-127886668D01*
X113580332Y-127465668D02*
X113030000Y-128016000D01*
X113580332Y-127886668D02*
X113578000Y-127889000D01*
%TO.N,Net-(Q2-B)*%
X108415666Y-127592666D02*
X108712000Y-127889000D01*
X108415666Y-113792000D02*
X108415666Y-127886666D01*
X108415666Y-127886666D02*
X108418000Y-127889000D01*
X108418000Y-127889000D02*
X115443000Y-134914000D01*
X115443000Y-134914000D02*
X115443000Y-135125998D01*
%TO.N,Net-(S1-NO)*%
X108415666Y-103632000D02*
X103251000Y-103632000D01*
X128525000Y-106045000D02*
X126112000Y-103632000D01*
X118745000Y-103632000D02*
X113580332Y-103632000D01*
X126112000Y-103632000D02*
X118745000Y-103632000D01*
X113580332Y-103632000D02*
X108415666Y-103632000D01*
%TO.N,Net-(S1-COM)*%
X133096000Y-137922000D02*
X133096000Y-137922000D01*
X132715000Y-109475000D02*
X136145000Y-106045000D01*
X133172000Y-136142000D02*
X133172000Y-137846000D01*
X133223000Y-137922000D02*
X133096000Y-137922000D01*
X132715000Y-113715000D02*
X132715000Y-111379000D01*
X132715000Y-135685000D02*
X133172000Y-136142000D01*
X133223000Y-137795000D02*
X133223000Y-137922000D01*
X133172000Y-137846000D02*
X133223000Y-137795000D01*
X132715000Y-111379000D02*
X132715000Y-109475000D01*
%TO.N,/Neg*%
X110744000Y-138303000D02*
X120015000Y-138303000D01*
X108899000Y-136458000D02*
X110744000Y-138303000D01*
X120015000Y-138303000D02*
X121412000Y-138303000D01*
X132715000Y-127000000D02*
X132715000Y-124700000D01*
X121412000Y-138303000D02*
X132715000Y-127000000D01*
X108899000Y-135125998D02*
X108899000Y-136458000D01*
X118043000Y-135125998D02*
X118043000Y-136331000D01*
X118043000Y-136331000D02*
X120015000Y-138303000D01*
%TD*%
%TA.AperFunction,NonConductor*%
G36*
X144942539Y-100020185D02*
G01*
X144988294Y-100072989D01*
X144999500Y-100124500D01*
X144999500Y-139875500D01*
X144979815Y-139942539D01*
X144927011Y-139988294D01*
X144875500Y-139999500D01*
X100124500Y-139999500D01*
X100057461Y-139979815D01*
X100011706Y-139927011D01*
X100000500Y-139875500D01*
X100000500Y-113792001D01*
X101945532Y-113792001D01*
X101965364Y-114018686D01*
X101965366Y-114018697D01*
X102024258Y-114238488D01*
X102024261Y-114238497D01*
X102120431Y-114444732D01*
X102120432Y-114444734D01*
X102250954Y-114631141D01*
X102411858Y-114792045D01*
X102572623Y-114904613D01*
X102616248Y-114959189D01*
X102625500Y-115006188D01*
X102625500Y-117265255D01*
X102623775Y-117280872D01*
X102624061Y-117280899D01*
X102623326Y-117288665D01*
X102625500Y-117357814D01*
X102625500Y-117387343D01*
X102625501Y-117387360D01*
X102626368Y-117394231D01*
X102626826Y-117400050D01*
X102628290Y-117446624D01*
X102628291Y-117446627D01*
X102633880Y-117465867D01*
X102637824Y-117484911D01*
X102640336Y-117504791D01*
X102657490Y-117548119D01*
X102659382Y-117553647D01*
X102659489Y-117554016D01*
X102672382Y-117598390D01*
X102680849Y-117612708D01*
X102682580Y-117615634D01*
X102691136Y-117633100D01*
X102698514Y-117651732D01*
X102725338Y-117688653D01*
X102725898Y-117689423D01*
X102729106Y-117694307D01*
X102752827Y-117734416D01*
X102752833Y-117734424D01*
X102766990Y-117748580D01*
X102779628Y-117763376D01*
X102791405Y-117779586D01*
X102791406Y-117779587D01*
X102827309Y-117809288D01*
X102831620Y-117813210D01*
X103260759Y-118242349D01*
X103513145Y-118494735D01*
X103546630Y-118556058D01*
X103545240Y-118614507D01*
X103534839Y-118653324D01*
X103534838Y-118653331D01*
X103515708Y-118871997D01*
X103515708Y-118872000D01*
X103534839Y-119090674D01*
X103591653Y-119302703D01*
X103591654Y-119302706D01*
X103591655Y-119302708D01*
X103684419Y-119501642D01*
X103684423Y-119501650D01*
X103810322Y-119681452D01*
X103810327Y-119681458D01*
X103965541Y-119836672D01*
X103965547Y-119836677D01*
X104145349Y-119962576D01*
X104145351Y-119962577D01*
X104145354Y-119962579D01*
X104229963Y-120002032D01*
X104289120Y-120029618D01*
X104341560Y-120075790D01*
X104360712Y-120142983D01*
X104340496Y-120209865D01*
X104289120Y-120254382D01*
X104145357Y-120321419D01*
X104145349Y-120321423D01*
X103965547Y-120447322D01*
X103965541Y-120447327D01*
X103810327Y-120602541D01*
X103810322Y-120602547D01*
X103684423Y-120782349D01*
X103684419Y-120782357D01*
X103591655Y-120981291D01*
X103534839Y-121193324D01*
X103534838Y-121193331D01*
X103515708Y-121411997D01*
X103515708Y-121412002D01*
X103534838Y-121630668D01*
X103534839Y-121630675D01*
X103545238Y-121669484D01*
X103591653Y-121842703D01*
X103591654Y-121842706D01*
X103591655Y-121842708D01*
X103684419Y-122041642D01*
X103684423Y-122041650D01*
X103810322Y-122221452D01*
X103810327Y-122221458D01*
X103965541Y-122376672D01*
X103965547Y-122376677D01*
X104145349Y-122502576D01*
X104145351Y-122502577D01*
X104145354Y-122502579D01*
X104344297Y-122595347D01*
X104556326Y-122652161D01*
X104712521Y-122665825D01*
X104774998Y-122671292D01*
X104775000Y-122671292D01*
X104775002Y-122671292D01*
X104829668Y-122666509D01*
X104993674Y-122652161D01*
X105032487Y-122641761D01*
X105102337Y-122643423D01*
X105152261Y-122673851D01*
X105256182Y-122777772D01*
X105289666Y-122839093D01*
X105292500Y-122865452D01*
X105292500Y-126464500D01*
X105272815Y-126531539D01*
X105220011Y-126577294D01*
X105168501Y-126588500D01*
X105070130Y-126588500D01*
X105070123Y-126588501D01*
X105010516Y-126594908D01*
X104875671Y-126645202D01*
X104875664Y-126645206D01*
X104760455Y-126731452D01*
X104760452Y-126731455D01*
X104674206Y-126846664D01*
X104674202Y-126846671D01*
X104623908Y-126981517D01*
X104618404Y-127032715D01*
X104617501Y-127041123D01*
X104617500Y-127041135D01*
X104617500Y-128736870D01*
X104617501Y-128736876D01*
X104623908Y-128796483D01*
X104674202Y-128931328D01*
X104674206Y-128931335D01*
X104760452Y-129046544D01*
X104760455Y-129046547D01*
X104875664Y-129132793D01*
X104875671Y-129132797D01*
X104920618Y-129149561D01*
X105010517Y-129183091D01*
X105070127Y-129189500D01*
X105168500Y-129189499D01*
X105235538Y-129209183D01*
X105281294Y-129261986D01*
X105292500Y-129313499D01*
X105292500Y-132596544D01*
X105272815Y-132663583D01*
X105256181Y-132684225D01*
X104048501Y-133891904D01*
X103987178Y-133925389D01*
X103928732Y-133923999D01*
X103911757Y-133919451D01*
X103911748Y-133919449D01*
X103911747Y-133919449D01*
X103911745Y-133919448D01*
X103911741Y-133919448D01*
X103699001Y-133900836D01*
X103698998Y-133900836D01*
X103486258Y-133919448D01*
X103486247Y-133919450D01*
X103279977Y-133974719D01*
X103279968Y-133974723D01*
X103086421Y-134064975D01*
X102911478Y-134187470D01*
X102760472Y-134338476D01*
X102637977Y-134513419D01*
X102547725Y-134706966D01*
X102547721Y-134706975D01*
X102492452Y-134913245D01*
X102492450Y-134913256D01*
X102473838Y-135125996D01*
X102473838Y-135125999D01*
X102492450Y-135338739D01*
X102492452Y-135338750D01*
X102547721Y-135545020D01*
X102547722Y-135545022D01*
X102547724Y-135545028D01*
X102590171Y-135636056D01*
X102637977Y-135738576D01*
X102760472Y-135913519D01*
X102911478Y-136064525D01*
X102911481Y-136064527D01*
X103086419Y-136187019D01*
X103086421Y-136187020D01*
X103086420Y-136187020D01*
X103150936Y-136217104D01*
X103279970Y-136277274D01*
X103486253Y-136332547D01*
X103638215Y-136345842D01*
X103698998Y-136351160D01*
X103699000Y-136351160D01*
X103699002Y-136351160D01*
X103752186Y-136346506D01*
X103911747Y-136332547D01*
X104118030Y-136277274D01*
X104311581Y-136187019D01*
X104486519Y-136064527D01*
X104637529Y-135913517D01*
X104760021Y-135738579D01*
X104850276Y-135545028D01*
X104879225Y-135436986D01*
X104915588Y-135377328D01*
X104978434Y-135346798D01*
X105047810Y-135355092D01*
X105101689Y-135399577D01*
X105118774Y-135436987D01*
X105147722Y-135545022D01*
X105147724Y-135545028D01*
X105190171Y-135636056D01*
X105237977Y-135738576D01*
X105360472Y-135913519D01*
X105511478Y-136064525D01*
X105511481Y-136064527D01*
X105686419Y-136187019D01*
X105686421Y-136187020D01*
X105686420Y-136187020D01*
X105750936Y-136217104D01*
X105879970Y-136277274D01*
X106086253Y-136332547D01*
X106238215Y-136345842D01*
X106298998Y-136351160D01*
X106299000Y-136351160D01*
X106299002Y-136351160D01*
X106352186Y-136346506D01*
X106511747Y-136332547D01*
X106718030Y-136277274D01*
X106911581Y-136187019D01*
X107086519Y-136064527D01*
X107237529Y-135913517D01*
X107360021Y-135738579D01*
X107450276Y-135545028D01*
X107479225Y-135436987D01*
X107515590Y-135377327D01*
X107578436Y-135346798D01*
X107647812Y-135355092D01*
X107701690Y-135399578D01*
X107718775Y-135436988D01*
X107747721Y-135545020D01*
X107747722Y-135545022D01*
X107747724Y-135545028D01*
X107790171Y-135636056D01*
X107837977Y-135738576D01*
X107960472Y-135913519D01*
X108111478Y-136064525D01*
X108111481Y-136064527D01*
X108220623Y-136140948D01*
X108264248Y-136195524D01*
X108273500Y-136242523D01*
X108273500Y-136375255D01*
X108271775Y-136390872D01*
X108272061Y-136390899D01*
X108271326Y-136398665D01*
X108273500Y-136467814D01*
X108273500Y-136497343D01*
X108273501Y-136497360D01*
X108274368Y-136504231D01*
X108274826Y-136510050D01*
X108276290Y-136556624D01*
X108276291Y-136556627D01*
X108281880Y-136575867D01*
X108285824Y-136594911D01*
X108286295Y-136598634D01*
X108288336Y-136614791D01*
X108305490Y-136658119D01*
X108307382Y-136663647D01*
X108311420Y-136677547D01*
X108320382Y-136708390D01*
X108325724Y-136717424D01*
X108330580Y-136725634D01*
X108339138Y-136743103D01*
X108346514Y-136761732D01*
X108373898Y-136799423D01*
X108377106Y-136804307D01*
X108400827Y-136844416D01*
X108400833Y-136844424D01*
X108414990Y-136858580D01*
X108427628Y-136873376D01*
X108439405Y-136889586D01*
X108439406Y-136889587D01*
X108475309Y-136919288D01*
X108479620Y-136923210D01*
X109846686Y-138290277D01*
X110243197Y-138686788D01*
X110253022Y-138699051D01*
X110253243Y-138698869D01*
X110258214Y-138704878D01*
X110279043Y-138724437D01*
X110308635Y-138752226D01*
X110329529Y-138773120D01*
X110335011Y-138777373D01*
X110339443Y-138781157D01*
X110373418Y-138813062D01*
X110390976Y-138822714D01*
X110407233Y-138833393D01*
X110423064Y-138845673D01*
X110442737Y-138854186D01*
X110465833Y-138864182D01*
X110471077Y-138866750D01*
X110511908Y-138889197D01*
X110524523Y-138892435D01*
X110531305Y-138894177D01*
X110549719Y-138900481D01*
X110568104Y-138908438D01*
X110614157Y-138915732D01*
X110619826Y-138916906D01*
X110664981Y-138928500D01*
X110685016Y-138928500D01*
X110704413Y-138930026D01*
X110724196Y-138933160D01*
X110770583Y-138928775D01*
X110776422Y-138928500D01*
X119935981Y-138928500D01*
X119956016Y-138928500D01*
X119975414Y-138930026D01*
X119995194Y-138933159D01*
X119995195Y-138933160D01*
X119995195Y-138933159D01*
X119995196Y-138933160D01*
X120041583Y-138928775D01*
X120047422Y-138928500D01*
X121329257Y-138928500D01*
X121344877Y-138930224D01*
X121344904Y-138929939D01*
X121352660Y-138930671D01*
X121352667Y-138930673D01*
X121421814Y-138928500D01*
X121451350Y-138928500D01*
X121458228Y-138927630D01*
X121464041Y-138927172D01*
X121510627Y-138925709D01*
X121529869Y-138920117D01*
X121548912Y-138916174D01*
X121568792Y-138913664D01*
X121612122Y-138896507D01*
X121617646Y-138894617D01*
X121621396Y-138893527D01*
X121662390Y-138881618D01*
X121679629Y-138871422D01*
X121697103Y-138862862D01*
X121715727Y-138855488D01*
X121715727Y-138855487D01*
X121715732Y-138855486D01*
X121753449Y-138828082D01*
X121758305Y-138824892D01*
X121798420Y-138801170D01*
X121812589Y-138786999D01*
X121827379Y-138774368D01*
X121843587Y-138762594D01*
X121873299Y-138726676D01*
X121877212Y-138722376D01*
X124231718Y-136367870D01*
X129674500Y-136367870D01*
X129674501Y-136367876D01*
X129680908Y-136427483D01*
X129731202Y-136562328D01*
X129731206Y-136562335D01*
X129817452Y-136677544D01*
X129817455Y-136677547D01*
X129932664Y-136763793D01*
X129932671Y-136763797D01*
X130067517Y-136814091D01*
X130067516Y-136814091D01*
X130074444Y-136814835D01*
X130127127Y-136820500D01*
X132422500Y-136820499D01*
X132489539Y-136840184D01*
X132535294Y-136892987D01*
X132546500Y-136944499D01*
X132546500Y-137279954D01*
X132526815Y-137346993D01*
X132514650Y-137362926D01*
X132490466Y-137389785D01*
X132395821Y-137553715D01*
X132395818Y-137553722D01*
X132337327Y-137733740D01*
X132337326Y-137733744D01*
X132317540Y-137922000D01*
X132337326Y-138110256D01*
X132337327Y-138110259D01*
X132395818Y-138290277D01*
X132395821Y-138290284D01*
X132490467Y-138454216D01*
X132617129Y-138594888D01*
X132770265Y-138706148D01*
X132770270Y-138706151D01*
X132943192Y-138783142D01*
X132943197Y-138783144D01*
X133128354Y-138822500D01*
X133128355Y-138822500D01*
X133317644Y-138822500D01*
X133317646Y-138822500D01*
X133502803Y-138783144D01*
X133675730Y-138706151D01*
X133828871Y-138594888D01*
X133955533Y-138454216D01*
X134050179Y-138290284D01*
X134108674Y-138110256D01*
X134128460Y-137922000D01*
X134108674Y-137733744D01*
X134050179Y-137553716D01*
X133955533Y-137389784D01*
X133891864Y-137319073D01*
X133829350Y-137249643D01*
X133799120Y-137186651D01*
X133797500Y-137166671D01*
X133797500Y-136944499D01*
X133817185Y-136877460D01*
X133869989Y-136831705D01*
X133921500Y-136820499D01*
X135302871Y-136820499D01*
X135302872Y-136820499D01*
X135362483Y-136814091D01*
X135497331Y-136763796D01*
X135612546Y-136677546D01*
X135698796Y-136562331D01*
X135749091Y-136427483D01*
X135755500Y-136367873D01*
X135755499Y-135002128D01*
X135749091Y-134942517D01*
X135738177Y-134913256D01*
X135698797Y-134807671D01*
X135698793Y-134807664D01*
X135612547Y-134692455D01*
X135612544Y-134692452D01*
X135497335Y-134606206D01*
X135497328Y-134606202D01*
X135362482Y-134555908D01*
X135362483Y-134555908D01*
X135302883Y-134549501D01*
X135302881Y-134549500D01*
X135302873Y-134549500D01*
X135302864Y-134549500D01*
X130127129Y-134549500D01*
X130127123Y-134549501D01*
X130067516Y-134555908D01*
X129932671Y-134606202D01*
X129932664Y-134606206D01*
X129817455Y-134692452D01*
X129817452Y-134692455D01*
X129731206Y-134807664D01*
X129731202Y-134807671D01*
X129680908Y-134942517D01*
X129674501Y-135002116D01*
X129674501Y-135002123D01*
X129674500Y-135002135D01*
X129674500Y-136367870D01*
X124231718Y-136367870D01*
X133098788Y-127500801D01*
X133111042Y-127490986D01*
X133110859Y-127490764D01*
X133116866Y-127485792D01*
X133116877Y-127485786D01*
X133157515Y-127442511D01*
X133164227Y-127435364D01*
X133174671Y-127424918D01*
X133185120Y-127414471D01*
X133189379Y-127408978D01*
X133193152Y-127404561D01*
X133225062Y-127370582D01*
X133234715Y-127353020D01*
X133245389Y-127336770D01*
X133257673Y-127320936D01*
X133276180Y-127278167D01*
X133278749Y-127272924D01*
X133294233Y-127244759D01*
X133343780Y-127195496D01*
X133402894Y-127180499D01*
X134742871Y-127180499D01*
X134742872Y-127180499D01*
X134802483Y-127174091D01*
X134937331Y-127123796D01*
X135052546Y-127037546D01*
X135138796Y-126922331D01*
X135189091Y-126787483D01*
X135195500Y-126727873D01*
X135195499Y-122672128D01*
X135189091Y-122612517D01*
X135185534Y-122602981D01*
X135138797Y-122477671D01*
X135138793Y-122477664D01*
X135052547Y-122362455D01*
X135052544Y-122362452D01*
X134937335Y-122276206D01*
X134937328Y-122276202D01*
X134802482Y-122225908D01*
X134802483Y-122225908D01*
X134742883Y-122219501D01*
X134742881Y-122219500D01*
X134742873Y-122219500D01*
X134742864Y-122219500D01*
X130687129Y-122219500D01*
X130687123Y-122219501D01*
X130627516Y-122225908D01*
X130492671Y-122276202D01*
X130492664Y-122276206D01*
X130377455Y-122362452D01*
X130377452Y-122362455D01*
X130291206Y-122477664D01*
X130291202Y-122477671D01*
X130240908Y-122612517D01*
X130234590Y-122671292D01*
X130234501Y-122672123D01*
X130234500Y-122672135D01*
X130234500Y-126727870D01*
X130234501Y-126727876D01*
X130240908Y-126787483D01*
X130291202Y-126922328D01*
X130291206Y-126922335D01*
X130377452Y-127037544D01*
X130377455Y-127037547D01*
X130492664Y-127123793D01*
X130492671Y-127123797D01*
X130627517Y-127174091D01*
X130627516Y-127174091D01*
X130634444Y-127174835D01*
X130687127Y-127180500D01*
X131350548Y-127180499D01*
X131417586Y-127200183D01*
X131463341Y-127252987D01*
X131473285Y-127322146D01*
X131444260Y-127385702D01*
X131438228Y-127392180D01*
X121189228Y-137641181D01*
X121127905Y-137674666D01*
X121101547Y-137677500D01*
X120325453Y-137677500D01*
X120258414Y-137657815D01*
X120237772Y-137641181D01*
X118833500Y-136236909D01*
X118800015Y-136175586D01*
X118804999Y-136105894D01*
X118833500Y-136061547D01*
X118981527Y-135913519D01*
X118981526Y-135913518D01*
X118981529Y-135913517D01*
X119104021Y-135738579D01*
X119194276Y-135545028D01*
X119249549Y-135338745D01*
X119268162Y-135125998D01*
X119249549Y-134913251D01*
X119194276Y-134706968D01*
X119104021Y-134513417D01*
X118981529Y-134338479D01*
X118981527Y-134338476D01*
X118830521Y-134187470D01*
X118655578Y-134064975D01*
X118655579Y-134064975D01*
X118493794Y-133989534D01*
X118462030Y-133974722D01*
X118462026Y-133974721D01*
X118462022Y-133974719D01*
X118255752Y-133919450D01*
X118255748Y-133919449D01*
X118255747Y-133919449D01*
X118255746Y-133919448D01*
X118255741Y-133919448D01*
X118043002Y-133900836D01*
X118042998Y-133900836D01*
X117830258Y-133919448D01*
X117830247Y-133919450D01*
X117623977Y-133974719D01*
X117623968Y-133974723D01*
X117430421Y-134064975D01*
X117255478Y-134187470D01*
X117104472Y-134338476D01*
X116981977Y-134513419D01*
X116891725Y-134706966D01*
X116891721Y-134706975D01*
X116862775Y-134815007D01*
X116826410Y-134874668D01*
X116763563Y-134905197D01*
X116694188Y-134896902D01*
X116640310Y-134852417D01*
X116623225Y-134815007D01*
X116594278Y-134706975D01*
X116594277Y-134706974D01*
X116594276Y-134706968D01*
X116504021Y-134513417D01*
X116381529Y-134338479D01*
X116381527Y-134338476D01*
X116230521Y-134187470D01*
X116055578Y-134064975D01*
X116055579Y-134064975D01*
X115893794Y-133989534D01*
X115862030Y-133974722D01*
X115862026Y-133974721D01*
X115862022Y-133974719D01*
X115655752Y-133919450D01*
X115655748Y-133919449D01*
X115655747Y-133919449D01*
X115655746Y-133919448D01*
X115655741Y-133919448D01*
X115443002Y-133900836D01*
X115442996Y-133900836D01*
X115382369Y-133906139D01*
X115313869Y-133892371D01*
X115283883Y-133870292D01*
X109717413Y-128303822D01*
X109683928Y-128242499D01*
X109685319Y-128184048D01*
X109703635Y-128115692D01*
X109723468Y-127889001D01*
X112272532Y-127889001D01*
X112292364Y-128115686D01*
X112292366Y-128115697D01*
X112351258Y-128335488D01*
X112351261Y-128335497D01*
X112447431Y-128541732D01*
X112447432Y-128541734D01*
X112577954Y-128728141D01*
X112738858Y-128889045D01*
X112738861Y-128889047D01*
X112925266Y-129019568D01*
X113131504Y-129115739D01*
X113351308Y-129174635D01*
X113508791Y-129188413D01*
X113577998Y-129194468D01*
X113578000Y-129194468D01*
X113578002Y-129194468D01*
X113634807Y-129189498D01*
X113804692Y-129174635D01*
X114024496Y-129115739D01*
X114230734Y-129019568D01*
X114417139Y-128889047D01*
X114574274Y-128731911D01*
X114635596Y-128698428D01*
X114705287Y-128703412D01*
X114761221Y-128745283D01*
X114782629Y-128791070D01*
X114783908Y-128796480D01*
X114834202Y-128931328D01*
X114834206Y-128931335D01*
X114920452Y-129046544D01*
X114920455Y-129046547D01*
X115035664Y-129132793D01*
X115035671Y-129132797D01*
X115170517Y-129183091D01*
X115170516Y-129183091D01*
X115177444Y-129183835D01*
X115230127Y-129189500D01*
X116925872Y-129189499D01*
X116985483Y-129183091D01*
X117120331Y-129132796D01*
X117235546Y-129046546D01*
X117321796Y-128931331D01*
X117372091Y-128796483D01*
X117378500Y-128736873D01*
X117378499Y-127041128D01*
X117372091Y-126981517D01*
X117337567Y-126888954D01*
X117321797Y-126846671D01*
X117321793Y-126846664D01*
X117235547Y-126731455D01*
X117235544Y-126731452D01*
X117120335Y-126645206D01*
X117120328Y-126645202D01*
X116985482Y-126594908D01*
X116985483Y-126594908D01*
X116925883Y-126588501D01*
X116925881Y-126588500D01*
X116925873Y-126588500D01*
X116925865Y-126588500D01*
X116827500Y-126588500D01*
X116760461Y-126568815D01*
X116714706Y-126516011D01*
X116703500Y-126464500D01*
X116703500Y-122992451D01*
X116723185Y-122925412D01*
X116739815Y-122904774D01*
X116970737Y-122673851D01*
X117032058Y-122640368D01*
X117090510Y-122641759D01*
X117129326Y-122652161D01*
X117312814Y-122668213D01*
X117347998Y-122671292D01*
X117348000Y-122671292D01*
X117348002Y-122671292D01*
X117402668Y-122666509D01*
X117566674Y-122652161D01*
X117778703Y-122595347D01*
X117977646Y-122502579D01*
X118157457Y-122376674D01*
X118312674Y-122221457D01*
X118438579Y-122041646D01*
X118531347Y-121842703D01*
X118588161Y-121630674D01*
X118607292Y-121412000D01*
X118588161Y-121193326D01*
X118531347Y-120981297D01*
X118438579Y-120782354D01*
X118438577Y-120782351D01*
X118438576Y-120782349D01*
X118312677Y-120602547D01*
X118312672Y-120602541D01*
X118157458Y-120447327D01*
X118157452Y-120447322D01*
X117977650Y-120321423D01*
X117977642Y-120321419D01*
X117833879Y-120254382D01*
X117781439Y-120208210D01*
X117762287Y-120141017D01*
X117782502Y-120074136D01*
X117833879Y-120029618D01*
X117977646Y-119962579D01*
X118157457Y-119836674D01*
X118312674Y-119681457D01*
X118438579Y-119501646D01*
X118531347Y-119302703D01*
X118588161Y-119090674D01*
X118607292Y-118872000D01*
X118588161Y-118653326D01*
X118577760Y-118614510D01*
X118579421Y-118544663D01*
X118609851Y-118494737D01*
X119128787Y-117975802D01*
X119141042Y-117965986D01*
X119140859Y-117965764D01*
X119146866Y-117960792D01*
X119146877Y-117960786D01*
X119177775Y-117927882D01*
X119194227Y-117910364D01*
X119204671Y-117899918D01*
X119215120Y-117889471D01*
X119219379Y-117883978D01*
X119223152Y-117879561D01*
X119255062Y-117845582D01*
X119264713Y-117828024D01*
X119275396Y-117811761D01*
X119287673Y-117795936D01*
X119306185Y-117753153D01*
X119308738Y-117747941D01*
X119331197Y-117707092D01*
X119336180Y-117687680D01*
X119342481Y-117669280D01*
X119350437Y-117650896D01*
X119357729Y-117604852D01*
X119358906Y-117599171D01*
X119370500Y-117554019D01*
X119370500Y-117533983D01*
X119372027Y-117514582D01*
X119375160Y-117494804D01*
X119370775Y-117448415D01*
X119370500Y-117442577D01*
X119370500Y-115006188D01*
X119390185Y-114939149D01*
X119423377Y-114904613D01*
X119471836Y-114870681D01*
X119584139Y-114792047D01*
X119745047Y-114631139D01*
X119875568Y-114444734D01*
X119897421Y-114397870D01*
X129674500Y-114397870D01*
X129674501Y-114397876D01*
X129680908Y-114457483D01*
X129731202Y-114592328D01*
X129731206Y-114592335D01*
X129817452Y-114707544D01*
X129817455Y-114707547D01*
X129932664Y-114793793D01*
X129932671Y-114793797D01*
X130067517Y-114844091D01*
X130067516Y-114844091D01*
X130074444Y-114844835D01*
X130127127Y-114850500D01*
X135302872Y-114850499D01*
X135362483Y-114844091D01*
X135497331Y-114793796D01*
X135612546Y-114707546D01*
X135698796Y-114592331D01*
X135749091Y-114457483D01*
X135755500Y-114397873D01*
X135755499Y-113032128D01*
X135749091Y-112972517D01*
X135698796Y-112837669D01*
X135698795Y-112837668D01*
X135698793Y-112837664D01*
X135612547Y-112722455D01*
X135612544Y-112722452D01*
X135497335Y-112636206D01*
X135497328Y-112636202D01*
X135362482Y-112585908D01*
X135362483Y-112585908D01*
X135302883Y-112579501D01*
X135302881Y-112579500D01*
X135302873Y-112579500D01*
X135302865Y-112579500D01*
X133464500Y-112579500D01*
X133397461Y-112559815D01*
X133351706Y-112507011D01*
X133340500Y-112455500D01*
X133340499Y-112077686D01*
X133360183Y-112010647D01*
X133372351Y-111994712D01*
X133447530Y-111911220D01*
X133447531Y-111911217D01*
X133447533Y-111911216D01*
X133542179Y-111747284D01*
X133600674Y-111567256D01*
X133620460Y-111379000D01*
X133600674Y-111190744D01*
X133542179Y-111010716D01*
X133447533Y-110846784D01*
X133372349Y-110763283D01*
X133342119Y-110700291D01*
X133340499Y-110680311D01*
X133340499Y-109785447D01*
X133360184Y-109718412D01*
X133376813Y-109697775D01*
X135740384Y-107334204D01*
X135801705Y-107300721D01*
X135860155Y-107302111D01*
X135920487Y-107318278D01*
X136080853Y-107332308D01*
X136144998Y-107337920D01*
X136145000Y-107337920D01*
X136145002Y-107337920D01*
X136201128Y-107333009D01*
X136369513Y-107318278D01*
X136587205Y-107259947D01*
X136791460Y-107164702D01*
X136976073Y-107035434D01*
X137135434Y-106876073D01*
X137264702Y-106691460D01*
X137359947Y-106487205D01*
X137418278Y-106269513D01*
X137437920Y-106045000D01*
X137418278Y-105820487D01*
X137359947Y-105602795D01*
X137264702Y-105398540D01*
X137135434Y-105213927D01*
X136976073Y-105054566D01*
X136976072Y-105054566D01*
X136791466Y-104925302D01*
X136791463Y-104925300D01*
X136791460Y-104925298D01*
X136775027Y-104917635D01*
X136587211Y-104830055D01*
X136587200Y-104830051D01*
X136369514Y-104771722D01*
X136369507Y-104771721D01*
X136145002Y-104752080D01*
X136144998Y-104752080D01*
X135920492Y-104771721D01*
X135920485Y-104771722D01*
X135702799Y-104830051D01*
X135702788Y-104830055D01*
X135498543Y-104925296D01*
X135498533Y-104925302D01*
X135313926Y-105054566D01*
X135154566Y-105213926D01*
X135025302Y-105398533D01*
X135025296Y-105398543D01*
X134930055Y-105602788D01*
X134930051Y-105602799D01*
X134871722Y-105820485D01*
X134871721Y-105820492D01*
X134852080Y-106044997D01*
X134852080Y-106045002D01*
X134871721Y-106269507D01*
X134871724Y-106269521D01*
X134887886Y-106329842D01*
X134886223Y-106399692D01*
X134855792Y-106449615D01*
X132331208Y-108974199D01*
X132318951Y-108984020D01*
X132319134Y-108984241D01*
X132313123Y-108989213D01*
X132265772Y-109039636D01*
X132244889Y-109060519D01*
X132244877Y-109060532D01*
X132240621Y-109066017D01*
X132236837Y-109070447D01*
X132204937Y-109104418D01*
X132204936Y-109104420D01*
X132195284Y-109121976D01*
X132184610Y-109138226D01*
X132172329Y-109154061D01*
X132172324Y-109154068D01*
X132153815Y-109196838D01*
X132151245Y-109202084D01*
X132128803Y-109242906D01*
X132123822Y-109262307D01*
X132117521Y-109280710D01*
X132109562Y-109299102D01*
X132109561Y-109299106D01*
X132102271Y-109345127D01*
X132101087Y-109350846D01*
X132089499Y-109395983D01*
X132089499Y-109416019D01*
X132087973Y-109435407D01*
X132084840Y-109455192D01*
X132084840Y-109455195D01*
X132089225Y-109501583D01*
X132089500Y-109507421D01*
X132089500Y-110680312D01*
X132069815Y-110747351D01*
X132057650Y-110763284D01*
X131982466Y-110846784D01*
X131887821Y-111010715D01*
X131887818Y-111010722D01*
X131829327Y-111190740D01*
X131829326Y-111190744D01*
X131809540Y-111379000D01*
X131829326Y-111567256D01*
X131829327Y-111567259D01*
X131887818Y-111747277D01*
X131887821Y-111747284D01*
X131982467Y-111911216D01*
X131982471Y-111911220D01*
X132057650Y-111994715D01*
X132087880Y-112057706D01*
X132089500Y-112077687D01*
X132089500Y-112455500D01*
X132069815Y-112522539D01*
X132017011Y-112568294D01*
X131965500Y-112579500D01*
X130127129Y-112579500D01*
X130127123Y-112579501D01*
X130067516Y-112585908D01*
X129932671Y-112636202D01*
X129932664Y-112636206D01*
X129817455Y-112722452D01*
X129817452Y-112722455D01*
X129731206Y-112837664D01*
X129731202Y-112837671D01*
X129680908Y-112972517D01*
X129674501Y-113032116D01*
X129674501Y-113032123D01*
X129674500Y-113032135D01*
X129674500Y-114397870D01*
X119897421Y-114397870D01*
X119971739Y-114238496D01*
X120030635Y-114018692D01*
X120050468Y-113792000D01*
X120030635Y-113565308D01*
X119971739Y-113345504D01*
X119875568Y-113139266D01*
X119758810Y-112972517D01*
X119745045Y-112952858D01*
X119584141Y-112791954D01*
X119397734Y-112661432D01*
X119397732Y-112661431D01*
X119191497Y-112565261D01*
X119191488Y-112565258D01*
X118971697Y-112506366D01*
X118971693Y-112506365D01*
X118971692Y-112506365D01*
X118971691Y-112506364D01*
X118971686Y-112506364D01*
X118745002Y-112486532D01*
X118744998Y-112486532D01*
X118518313Y-112506364D01*
X118518302Y-112506366D01*
X118298511Y-112565258D01*
X118298502Y-112565261D01*
X118092267Y-112661431D01*
X118092265Y-112661432D01*
X117905858Y-112791954D01*
X117744954Y-112952858D01*
X117614432Y-113139265D01*
X117614431Y-113139267D01*
X117518261Y-113345502D01*
X117518258Y-113345511D01*
X117459366Y-113565302D01*
X117459364Y-113565313D01*
X117439532Y-113791998D01*
X117439532Y-113792001D01*
X117459364Y-114018686D01*
X117459366Y-114018697D01*
X117518258Y-114238488D01*
X117518261Y-114238497D01*
X117614431Y-114444732D01*
X117614432Y-114444734D01*
X117744954Y-114631141D01*
X117905858Y-114792045D01*
X118066623Y-114904613D01*
X118110248Y-114959189D01*
X118119500Y-115006188D01*
X118119500Y-117164546D01*
X118099815Y-117231585D01*
X118083181Y-117252227D01*
X117725262Y-117610145D01*
X117663939Y-117643630D01*
X117605488Y-117642239D01*
X117566674Y-117631839D01*
X117348002Y-117612708D01*
X117347998Y-117612708D01*
X117129331Y-117631838D01*
X117129324Y-117631839D01*
X117021363Y-117660768D01*
X116917297Y-117688653D01*
X116917295Y-117688653D01*
X116917291Y-117688655D01*
X116718357Y-117781419D01*
X116718349Y-117781423D01*
X116538547Y-117907322D01*
X116538541Y-117907327D01*
X116383327Y-118062541D01*
X116383322Y-118062547D01*
X116257423Y-118242349D01*
X116257419Y-118242357D01*
X116164655Y-118441291D01*
X116107839Y-118653324D01*
X116107838Y-118653331D01*
X116088708Y-118871997D01*
X116088708Y-118872000D01*
X116107839Y-119090674D01*
X116164653Y-119302703D01*
X116164654Y-119302706D01*
X116164655Y-119302708D01*
X116257419Y-119501642D01*
X116257423Y-119501650D01*
X116383322Y-119681452D01*
X116383327Y-119681458D01*
X116538541Y-119836672D01*
X116538547Y-119836677D01*
X116718349Y-119962576D01*
X116718351Y-119962577D01*
X116718354Y-119962579D01*
X116802963Y-120002032D01*
X116862120Y-120029618D01*
X116914560Y-120075790D01*
X116933712Y-120142983D01*
X116913496Y-120209865D01*
X116862120Y-120254382D01*
X116718357Y-120321419D01*
X116718349Y-120321423D01*
X116538547Y-120447322D01*
X116538541Y-120447327D01*
X116383327Y-120602541D01*
X116383322Y-120602547D01*
X116257423Y-120782349D01*
X116257419Y-120782357D01*
X116164655Y-120981291D01*
X116107839Y-121193324D01*
X116107838Y-121193331D01*
X116088708Y-121411997D01*
X116088708Y-121412000D01*
X116107838Y-121630668D01*
X116107839Y-121630672D01*
X116107839Y-121630676D01*
X116118239Y-121669488D01*
X116116576Y-121739338D01*
X116086145Y-121789262D01*
X115694208Y-122181199D01*
X115681951Y-122191020D01*
X115682134Y-122191241D01*
X115676123Y-122196213D01*
X115628772Y-122246636D01*
X115607889Y-122267519D01*
X115607877Y-122267532D01*
X115603621Y-122273017D01*
X115599837Y-122277447D01*
X115567937Y-122311418D01*
X115567936Y-122311420D01*
X115558284Y-122328976D01*
X115547610Y-122345226D01*
X115535329Y-122361061D01*
X115535324Y-122361068D01*
X115516815Y-122403838D01*
X115514245Y-122409084D01*
X115491803Y-122449906D01*
X115486822Y-122469307D01*
X115480521Y-122487710D01*
X115472562Y-122506102D01*
X115472561Y-122506105D01*
X115465271Y-122552127D01*
X115464087Y-122557846D01*
X115452501Y-122602972D01*
X115452500Y-122602982D01*
X115452500Y-122623016D01*
X115450973Y-122642415D01*
X115447840Y-122662194D01*
X115447840Y-122662195D01*
X115452225Y-122708583D01*
X115452500Y-122714421D01*
X115452500Y-126464500D01*
X115432815Y-126531539D01*
X115380011Y-126577294D01*
X115328501Y-126588500D01*
X115230130Y-126588500D01*
X115230123Y-126588501D01*
X115170516Y-126594908D01*
X115035671Y-126645202D01*
X115035664Y-126645206D01*
X114920455Y-126731452D01*
X114920452Y-126731455D01*
X114834206Y-126846664D01*
X114834202Y-126846671D01*
X114783909Y-126981513D01*
X114782632Y-126986922D01*
X114748058Y-127047638D01*
X114686147Y-127080023D01*
X114616556Y-127073796D01*
X114574274Y-127046087D01*
X114417140Y-126888953D01*
X114258709Y-126778019D01*
X114215084Y-126723442D01*
X114205832Y-126676444D01*
X114205832Y-115006188D01*
X114225517Y-114939149D01*
X114258709Y-114904613D01*
X114307168Y-114870681D01*
X114419471Y-114792047D01*
X114580379Y-114631139D01*
X114710900Y-114444734D01*
X114807071Y-114238496D01*
X114865967Y-114018692D01*
X114885800Y-113792000D01*
X114865967Y-113565308D01*
X114807071Y-113345504D01*
X114710900Y-113139266D01*
X114594142Y-112972517D01*
X114580377Y-112952858D01*
X114419473Y-112791954D01*
X114233066Y-112661432D01*
X114233064Y-112661431D01*
X114026829Y-112565261D01*
X114026820Y-112565258D01*
X113807029Y-112506366D01*
X113807025Y-112506365D01*
X113807024Y-112506365D01*
X113807023Y-112506364D01*
X113807018Y-112506364D01*
X113580334Y-112486532D01*
X113580330Y-112486532D01*
X113353645Y-112506364D01*
X113353634Y-112506366D01*
X113133843Y-112565258D01*
X113133834Y-112565261D01*
X112927599Y-112661431D01*
X112927597Y-112661432D01*
X112741190Y-112791954D01*
X112580286Y-112952858D01*
X112449764Y-113139265D01*
X112449763Y-113139267D01*
X112353593Y-113345502D01*
X112353590Y-113345511D01*
X112294698Y-113565302D01*
X112294696Y-113565313D01*
X112274864Y-113791998D01*
X112274864Y-113792001D01*
X112294696Y-114018686D01*
X112294698Y-114018697D01*
X112353590Y-114238488D01*
X112353593Y-114238497D01*
X112449763Y-114444732D01*
X112449764Y-114444734D01*
X112580286Y-114631141D01*
X112741190Y-114792045D01*
X112901955Y-114904613D01*
X112945580Y-114959189D01*
X112954832Y-115006188D01*
X112954832Y-126673179D01*
X112935147Y-126740218D01*
X112901955Y-126774754D01*
X112738858Y-126888954D01*
X112577954Y-127049858D01*
X112447432Y-127236265D01*
X112447431Y-127236267D01*
X112351261Y-127442502D01*
X112351258Y-127442511D01*
X112292366Y-127662302D01*
X112292364Y-127662313D01*
X112272532Y-127888998D01*
X112272532Y-127889001D01*
X109723468Y-127889001D01*
X109723468Y-127889000D01*
X109703635Y-127662308D01*
X109644739Y-127442504D01*
X109548568Y-127236266D01*
X109450839Y-127096693D01*
X109418045Y-127049858D01*
X109257141Y-126888954D01*
X109094043Y-126774753D01*
X109050418Y-126720177D01*
X109041166Y-126673178D01*
X109041166Y-115006188D01*
X109060851Y-114939149D01*
X109094043Y-114904613D01*
X109142502Y-114870681D01*
X109254805Y-114792047D01*
X109415713Y-114631139D01*
X109546234Y-114444734D01*
X109642405Y-114238496D01*
X109701301Y-114018692D01*
X109721134Y-113792000D01*
X109701301Y-113565308D01*
X109642405Y-113345504D01*
X109546234Y-113139266D01*
X109429476Y-112972517D01*
X109415711Y-112952858D01*
X109254807Y-112791954D01*
X109068400Y-112661432D01*
X109068398Y-112661431D01*
X108862163Y-112565261D01*
X108862154Y-112565258D01*
X108642363Y-112506366D01*
X108642359Y-112506365D01*
X108642358Y-112506365D01*
X108642357Y-112506364D01*
X108642352Y-112506364D01*
X108415668Y-112486532D01*
X108415664Y-112486532D01*
X108188979Y-112506364D01*
X108188968Y-112506366D01*
X107969177Y-112565258D01*
X107969168Y-112565261D01*
X107762933Y-112661431D01*
X107762931Y-112661432D01*
X107576524Y-112791954D01*
X107415620Y-112952858D01*
X107285098Y-113139265D01*
X107285097Y-113139267D01*
X107188927Y-113345502D01*
X107188924Y-113345511D01*
X107130032Y-113565302D01*
X107130030Y-113565313D01*
X107110198Y-113791998D01*
X107110198Y-113792001D01*
X107130030Y-114018686D01*
X107130032Y-114018697D01*
X107188924Y-114238488D01*
X107188927Y-114238497D01*
X107285097Y-114444732D01*
X107285098Y-114444734D01*
X107415620Y-114631141D01*
X107576524Y-114792045D01*
X107737289Y-114904613D01*
X107780914Y-114959189D01*
X107790166Y-115006188D01*
X107790166Y-126676446D01*
X107770481Y-126743485D01*
X107737289Y-126778021D01*
X107578862Y-126888951D01*
X107421726Y-127046087D01*
X107360403Y-127079571D01*
X107290711Y-127074587D01*
X107234778Y-127032715D01*
X107213369Y-126986923D01*
X107212091Y-126981518D01*
X107212090Y-126981516D01*
X107161796Y-126846669D01*
X107161795Y-126846668D01*
X107161793Y-126846664D01*
X107075547Y-126731455D01*
X107075544Y-126731452D01*
X106960335Y-126645206D01*
X106960328Y-126645202D01*
X106825482Y-126594908D01*
X106825483Y-126594908D01*
X106765883Y-126588501D01*
X106765881Y-126588500D01*
X106765873Y-126588500D01*
X106765865Y-126588500D01*
X106667500Y-126588500D01*
X106600461Y-126568815D01*
X106554706Y-126516011D01*
X106543500Y-126464500D01*
X106543500Y-122637738D01*
X106545224Y-122622124D01*
X106544938Y-122622097D01*
X106545672Y-122614334D01*
X106543500Y-122545203D01*
X106543500Y-122515651D01*
X106543500Y-122515650D01*
X106542629Y-122508759D01*
X106542172Y-122502945D01*
X106542160Y-122502576D01*
X106540709Y-122456373D01*
X106535122Y-122437144D01*
X106531174Y-122418084D01*
X106528664Y-122398208D01*
X106528663Y-122398206D01*
X106528663Y-122398204D01*
X106511512Y-122354887D01*
X106509619Y-122349358D01*
X106496618Y-122304609D01*
X106496616Y-122304606D01*
X106486423Y-122287371D01*
X106477861Y-122269894D01*
X106470487Y-122251270D01*
X106470486Y-122251268D01*
X106443079Y-122213545D01*
X106439888Y-122208686D01*
X106432512Y-122196214D01*
X106416170Y-122168580D01*
X106416168Y-122168578D01*
X106416165Y-122168574D01*
X106402006Y-122154415D01*
X106389368Y-122139619D01*
X106377594Y-122123413D01*
X106341688Y-122093709D01*
X106337376Y-122089786D01*
X106036852Y-121789262D01*
X106003368Y-121727940D01*
X106004760Y-121669488D01*
X106015161Y-121630674D01*
X106034292Y-121412000D01*
X106015161Y-121193326D01*
X105958347Y-120981297D01*
X105865579Y-120782354D01*
X105865577Y-120782351D01*
X105865576Y-120782349D01*
X105739677Y-120602547D01*
X105739672Y-120602541D01*
X105584458Y-120447327D01*
X105584452Y-120447322D01*
X105404650Y-120321423D01*
X105404642Y-120321419D01*
X105260879Y-120254382D01*
X105208439Y-120208210D01*
X105189287Y-120141017D01*
X105209502Y-120074136D01*
X105260879Y-120029618D01*
X105404646Y-119962579D01*
X105584457Y-119836674D01*
X105739674Y-119681457D01*
X105865579Y-119501646D01*
X105958347Y-119302703D01*
X106015161Y-119090674D01*
X106034292Y-118872000D01*
X106015161Y-118653326D01*
X105958347Y-118441297D01*
X105865579Y-118242354D01*
X105865577Y-118242351D01*
X105865576Y-118242349D01*
X105739677Y-118062547D01*
X105739672Y-118062541D01*
X105584458Y-117907327D01*
X105584452Y-117907322D01*
X105404650Y-117781423D01*
X105404642Y-117781419D01*
X105205708Y-117688655D01*
X105205706Y-117688654D01*
X105205703Y-117688653D01*
X105037678Y-117643630D01*
X104993675Y-117631839D01*
X104993668Y-117631838D01*
X104775002Y-117612708D01*
X104774998Y-117612708D01*
X104556332Y-117631838D01*
X104556325Y-117631839D01*
X104517508Y-117642240D01*
X104447658Y-117640575D01*
X104397736Y-117610145D01*
X103912819Y-117125227D01*
X103879334Y-117063904D01*
X103876500Y-117037546D01*
X103876500Y-115006188D01*
X103896185Y-114939149D01*
X103929377Y-114904613D01*
X103977836Y-114870681D01*
X104090139Y-114792047D01*
X104251047Y-114631139D01*
X104381568Y-114444734D01*
X104477739Y-114238496D01*
X104536635Y-114018692D01*
X104556468Y-113792000D01*
X104536635Y-113565308D01*
X104477739Y-113345504D01*
X104381568Y-113139266D01*
X104264810Y-112972517D01*
X104251045Y-112952858D01*
X104090141Y-112791954D01*
X103903734Y-112661432D01*
X103903732Y-112661431D01*
X103697497Y-112565261D01*
X103697488Y-112565258D01*
X103477697Y-112506366D01*
X103477693Y-112506365D01*
X103477692Y-112506365D01*
X103477691Y-112506364D01*
X103477686Y-112506364D01*
X103251002Y-112486532D01*
X103250998Y-112486532D01*
X103024313Y-112506364D01*
X103024302Y-112506366D01*
X102804511Y-112565258D01*
X102804502Y-112565261D01*
X102598267Y-112661431D01*
X102598265Y-112661432D01*
X102411858Y-112791954D01*
X102250954Y-112952858D01*
X102120432Y-113139265D01*
X102120431Y-113139267D01*
X102024261Y-113345502D01*
X102024258Y-113345511D01*
X101965366Y-113565302D01*
X101965364Y-113565313D01*
X101945532Y-113791998D01*
X101945532Y-113792001D01*
X100000500Y-113792001D01*
X100000500Y-103632001D01*
X101945532Y-103632001D01*
X101965364Y-103858686D01*
X101965366Y-103858697D01*
X102024258Y-104078488D01*
X102024261Y-104078497D01*
X102120431Y-104284732D01*
X102120432Y-104284734D01*
X102250954Y-104471141D01*
X102411858Y-104632045D01*
X102411861Y-104632047D01*
X102598266Y-104762568D01*
X102804504Y-104858739D01*
X103024308Y-104917635D01*
X103186230Y-104931801D01*
X103250998Y-104937468D01*
X103251000Y-104937468D01*
X103251002Y-104937468D01*
X103307672Y-104932509D01*
X103477692Y-104917635D01*
X103697496Y-104858739D01*
X103903734Y-104762568D01*
X104090139Y-104632047D01*
X104251047Y-104471139D01*
X104363612Y-104310377D01*
X104418189Y-104266752D01*
X104465188Y-104257500D01*
X107201478Y-104257500D01*
X107268517Y-104277185D01*
X107303053Y-104310377D01*
X107415620Y-104471141D01*
X107576524Y-104632045D01*
X107576527Y-104632047D01*
X107762932Y-104762568D01*
X107969170Y-104858739D01*
X108188974Y-104917635D01*
X108350896Y-104931801D01*
X108415664Y-104937468D01*
X108415666Y-104937468D01*
X108415668Y-104937468D01*
X108472339Y-104932509D01*
X108642358Y-104917635D01*
X108862162Y-104858739D01*
X109068400Y-104762568D01*
X109254805Y-104632047D01*
X109415713Y-104471139D01*
X109528278Y-104310377D01*
X109582855Y-104266752D01*
X109629854Y-104257500D01*
X112366144Y-104257500D01*
X112433183Y-104277185D01*
X112467719Y-104310377D01*
X112580286Y-104471141D01*
X112741190Y-104632045D01*
X112741193Y-104632047D01*
X112927598Y-104762568D01*
X113133836Y-104858739D01*
X113353640Y-104917635D01*
X113515562Y-104931801D01*
X113580330Y-104937468D01*
X113580332Y-104937468D01*
X113580334Y-104937468D01*
X113637004Y-104932509D01*
X113807024Y-104917635D01*
X114026828Y-104858739D01*
X114233066Y-104762568D01*
X114419471Y-104632047D01*
X114580379Y-104471139D01*
X114692944Y-104310377D01*
X114747521Y-104266752D01*
X114794520Y-104257500D01*
X117530812Y-104257500D01*
X117597851Y-104277185D01*
X117632387Y-104310377D01*
X117744954Y-104471141D01*
X117905858Y-104632045D01*
X117905861Y-104632047D01*
X118092266Y-104762568D01*
X118298504Y-104858739D01*
X118518308Y-104917635D01*
X118680230Y-104931801D01*
X118744998Y-104937468D01*
X118745000Y-104937468D01*
X118745002Y-104937468D01*
X118801672Y-104932509D01*
X118971692Y-104917635D01*
X119191496Y-104858739D01*
X119397734Y-104762568D01*
X119584139Y-104632047D01*
X119745047Y-104471139D01*
X119857612Y-104310377D01*
X119912189Y-104266752D01*
X119959188Y-104257500D01*
X125801548Y-104257500D01*
X125868587Y-104277185D01*
X125889228Y-104293818D01*
X127235794Y-105640385D01*
X127269278Y-105701706D01*
X127267887Y-105760157D01*
X127251723Y-105820481D01*
X127251721Y-105820492D01*
X127232080Y-106044997D01*
X127232080Y-106045002D01*
X127251721Y-106269507D01*
X127251722Y-106269514D01*
X127310051Y-106487200D01*
X127310055Y-106487211D01*
X127405296Y-106691456D01*
X127405298Y-106691460D01*
X127534566Y-106876073D01*
X127693927Y-107035434D01*
X127878540Y-107164702D01*
X128001424Y-107222003D01*
X128082788Y-107259944D01*
X128082790Y-107259944D01*
X128082795Y-107259947D01*
X128300487Y-107318278D01*
X128460853Y-107332308D01*
X128524998Y-107337920D01*
X128525000Y-107337920D01*
X128525002Y-107337920D01*
X128581128Y-107333009D01*
X128749513Y-107318278D01*
X128967205Y-107259947D01*
X129171460Y-107164702D01*
X129356073Y-107035434D01*
X129515434Y-106876073D01*
X129644702Y-106691460D01*
X129739947Y-106487205D01*
X129798278Y-106269513D01*
X129817920Y-106045000D01*
X129798278Y-105820487D01*
X129739947Y-105602795D01*
X129644702Y-105398540D01*
X129515434Y-105213927D01*
X129356073Y-105054566D01*
X129356072Y-105054566D01*
X129171466Y-104925302D01*
X129171463Y-104925300D01*
X129171460Y-104925298D01*
X129155027Y-104917635D01*
X128967211Y-104830055D01*
X128967200Y-104830051D01*
X128749514Y-104771722D01*
X128749507Y-104771721D01*
X128525002Y-104752080D01*
X128524998Y-104752080D01*
X128300492Y-104771721D01*
X128300481Y-104771723D01*
X128240158Y-104787887D01*
X128170308Y-104786224D01*
X128120384Y-104755793D01*
X126612803Y-103248212D01*
X126602980Y-103235950D01*
X126602759Y-103236134D01*
X126597786Y-103230123D01*
X126547364Y-103182773D01*
X126536919Y-103172328D01*
X126526475Y-103161883D01*
X126520986Y-103157625D01*
X126516561Y-103153847D01*
X126482582Y-103121938D01*
X126482580Y-103121936D01*
X126482577Y-103121935D01*
X126465029Y-103112288D01*
X126448763Y-103101604D01*
X126432933Y-103089325D01*
X126390168Y-103070818D01*
X126384922Y-103068248D01*
X126344093Y-103045803D01*
X126344092Y-103045802D01*
X126324693Y-103040822D01*
X126306281Y-103034518D01*
X126287898Y-103026562D01*
X126287892Y-103026560D01*
X126241874Y-103019272D01*
X126236152Y-103018087D01*
X126191021Y-103006500D01*
X126191019Y-103006500D01*
X126170984Y-103006500D01*
X126151586Y-103004973D01*
X126144162Y-103003797D01*
X126131805Y-103001840D01*
X126131804Y-103001840D01*
X126085416Y-103006225D01*
X126079578Y-103006500D01*
X119959188Y-103006500D01*
X119892149Y-102986815D01*
X119857613Y-102953623D01*
X119745045Y-102792858D01*
X119584141Y-102631954D01*
X119397734Y-102501432D01*
X119397732Y-102501431D01*
X119191497Y-102405261D01*
X119191488Y-102405258D01*
X118971697Y-102346366D01*
X118971693Y-102346365D01*
X118971692Y-102346365D01*
X118971691Y-102346364D01*
X118971686Y-102346364D01*
X118745002Y-102326532D01*
X118744998Y-102326532D01*
X118518313Y-102346364D01*
X118518302Y-102346366D01*
X118298511Y-102405258D01*
X118298502Y-102405261D01*
X118092267Y-102501431D01*
X118092265Y-102501432D01*
X117905858Y-102631954D01*
X117744954Y-102792858D01*
X117632387Y-102953623D01*
X117577811Y-102997248D01*
X117530812Y-103006500D01*
X114794520Y-103006500D01*
X114727481Y-102986815D01*
X114692945Y-102953623D01*
X114580377Y-102792858D01*
X114419473Y-102631954D01*
X114233066Y-102501432D01*
X114233064Y-102501431D01*
X114026829Y-102405261D01*
X114026820Y-102405258D01*
X113807029Y-102346366D01*
X113807025Y-102346365D01*
X113807024Y-102346365D01*
X113807023Y-102346364D01*
X113807018Y-102346364D01*
X113580334Y-102326532D01*
X113580330Y-102326532D01*
X113353645Y-102346364D01*
X113353634Y-102346366D01*
X113133843Y-102405258D01*
X113133834Y-102405261D01*
X112927599Y-102501431D01*
X112927597Y-102501432D01*
X112741190Y-102631954D01*
X112580286Y-102792858D01*
X112467719Y-102953623D01*
X112413143Y-102997248D01*
X112366144Y-103006500D01*
X109629854Y-103006500D01*
X109562815Y-102986815D01*
X109528279Y-102953623D01*
X109415711Y-102792858D01*
X109254807Y-102631954D01*
X109068400Y-102501432D01*
X109068398Y-102501431D01*
X108862163Y-102405261D01*
X108862154Y-102405258D01*
X108642363Y-102346366D01*
X108642359Y-102346365D01*
X108642358Y-102346365D01*
X108642357Y-102346364D01*
X108642352Y-102346364D01*
X108415668Y-102326532D01*
X108415664Y-102326532D01*
X108188979Y-102346364D01*
X108188968Y-102346366D01*
X107969177Y-102405258D01*
X107969168Y-102405261D01*
X107762933Y-102501431D01*
X107762931Y-102501432D01*
X107576524Y-102631954D01*
X107415620Y-102792858D01*
X107303053Y-102953623D01*
X107248477Y-102997248D01*
X107201478Y-103006500D01*
X104465188Y-103006500D01*
X104398149Y-102986815D01*
X104363613Y-102953623D01*
X104251045Y-102792858D01*
X104090141Y-102631954D01*
X103903734Y-102501432D01*
X103903732Y-102501431D01*
X103697497Y-102405261D01*
X103697488Y-102405258D01*
X103477697Y-102346366D01*
X103477693Y-102346365D01*
X103477692Y-102346365D01*
X103477691Y-102346364D01*
X103477686Y-102346364D01*
X103251002Y-102326532D01*
X103250998Y-102326532D01*
X103024313Y-102346364D01*
X103024302Y-102346366D01*
X102804511Y-102405258D01*
X102804502Y-102405261D01*
X102598267Y-102501431D01*
X102598265Y-102501432D01*
X102411858Y-102631954D01*
X102250954Y-102792858D01*
X102120432Y-102979265D01*
X102120431Y-102979267D01*
X102024261Y-103185502D01*
X102024258Y-103185511D01*
X101965366Y-103405302D01*
X101965364Y-103405313D01*
X101945532Y-103631998D01*
X101945532Y-103632001D01*
X100000500Y-103632001D01*
X100000500Y-100124500D01*
X100020185Y-100057461D01*
X100072989Y-100011706D01*
X100124500Y-100000500D01*
X144875500Y-100000500D01*
X144942539Y-100020185D01*
G37*
%TD.AperFunction*%
%TA.AperFunction,NonConductor*%
G36*
X114179526Y-134535117D02*
G01*
X114253707Y-134609298D01*
X114287192Y-134670621D01*
X114285801Y-134729072D01*
X114262775Y-134815007D01*
X114226410Y-134874668D01*
X114163563Y-134905197D01*
X114094188Y-134896902D01*
X114040310Y-134852417D01*
X114023225Y-134815007D01*
X113994278Y-134706975D01*
X113994277Y-134706974D01*
X113994276Y-134706968D01*
X113979462Y-134675200D01*
X113968971Y-134606127D01*
X113997490Y-134542342D01*
X114055966Y-134504102D01*
X114125833Y-134503547D01*
X114179526Y-134535117D01*
G37*
%TD.AperFunction*%
%TA.AperFunction,NonConductor*%
G36*
X107379433Y-128704199D02*
G01*
X107421725Y-128731912D01*
X107578858Y-128889045D01*
X107578861Y-128889047D01*
X107765266Y-129019568D01*
X107971504Y-129115739D01*
X108191308Y-129174635D01*
X108348791Y-129188413D01*
X108417998Y-129194468D01*
X108418000Y-129194468D01*
X108418002Y-129194468D01*
X108474807Y-129189498D01*
X108644692Y-129174635D01*
X108713048Y-129156319D01*
X108782897Y-129157982D01*
X108832822Y-129188413D01*
X113433880Y-133789471D01*
X113467365Y-133850794D01*
X113462381Y-133920486D01*
X113420509Y-133976419D01*
X113355045Y-134000836D01*
X113293794Y-133989534D01*
X113262030Y-133974722D01*
X113262026Y-133974721D01*
X113262022Y-133974719D01*
X113055752Y-133919450D01*
X113055748Y-133919449D01*
X113055747Y-133919449D01*
X113055746Y-133919448D01*
X113055741Y-133919448D01*
X112843002Y-133900836D01*
X112842998Y-133900836D01*
X112630258Y-133919448D01*
X112630247Y-133919450D01*
X112423977Y-133974719D01*
X112423968Y-133974723D01*
X112230421Y-134064975D01*
X112055478Y-134187470D01*
X111904472Y-134338476D01*
X111781977Y-134513419D01*
X111691725Y-134706966D01*
X111691721Y-134706975D01*
X111636452Y-134913245D01*
X111636450Y-134913256D01*
X111617838Y-135125996D01*
X111617838Y-135125999D01*
X111636450Y-135338739D01*
X111636452Y-135338750D01*
X111691721Y-135545020D01*
X111691722Y-135545022D01*
X111691724Y-135545028D01*
X111734171Y-135636056D01*
X111781977Y-135738576D01*
X111904472Y-135913519D01*
X112055478Y-136064525D01*
X112055481Y-136064527D01*
X112230419Y-136187019D01*
X112230421Y-136187020D01*
X112230420Y-136187020D01*
X112294936Y-136217104D01*
X112423970Y-136277274D01*
X112630253Y-136332547D01*
X112782215Y-136345842D01*
X112842998Y-136351160D01*
X112843000Y-136351160D01*
X112843002Y-136351160D01*
X112896186Y-136346506D01*
X113055747Y-136332547D01*
X113262030Y-136277274D01*
X113455581Y-136187019D01*
X113630519Y-136064527D01*
X113781529Y-135913517D01*
X113904021Y-135738579D01*
X113994276Y-135545028D01*
X114023225Y-135436987D01*
X114059590Y-135377327D01*
X114122436Y-135346798D01*
X114191812Y-135355092D01*
X114245690Y-135399578D01*
X114262775Y-135436988D01*
X114291721Y-135545020D01*
X114291722Y-135545022D01*
X114291724Y-135545028D01*
X114334171Y-135636056D01*
X114381977Y-135738576D01*
X114504472Y-135913519D01*
X114655478Y-136064525D01*
X114655481Y-136064527D01*
X114830419Y-136187019D01*
X114830421Y-136187020D01*
X114830420Y-136187020D01*
X114894936Y-136217104D01*
X115023970Y-136277274D01*
X115230253Y-136332547D01*
X115382215Y-136345842D01*
X115442998Y-136351160D01*
X115443000Y-136351160D01*
X115443002Y-136351160D01*
X115496186Y-136346506D01*
X115655747Y-136332547D01*
X115862030Y-136277274D01*
X116055581Y-136187019D01*
X116230519Y-136064527D01*
X116381529Y-135913517D01*
X116504021Y-135738579D01*
X116594276Y-135545028D01*
X116623225Y-135436986D01*
X116659588Y-135377328D01*
X116722434Y-135346798D01*
X116791810Y-135355092D01*
X116845689Y-135399577D01*
X116862774Y-135436987D01*
X116891722Y-135545022D01*
X116891724Y-135545028D01*
X116934171Y-135636056D01*
X116981977Y-135738576D01*
X117104472Y-135913519D01*
X117255478Y-136064525D01*
X117255481Y-136064527D01*
X117364623Y-136140948D01*
X117408248Y-136195524D01*
X117417500Y-136242523D01*
X117417500Y-136248255D01*
X117415775Y-136263872D01*
X117416061Y-136263899D01*
X117415326Y-136271665D01*
X117417500Y-136340814D01*
X117417500Y-136370343D01*
X117417501Y-136370360D01*
X117418368Y-136377231D01*
X117418826Y-136383050D01*
X117420290Y-136429624D01*
X117420291Y-136429627D01*
X117425880Y-136448867D01*
X117429824Y-136467911D01*
X117432336Y-136487792D01*
X117449490Y-136531119D01*
X117451382Y-136536647D01*
X117464381Y-136581388D01*
X117474580Y-136598634D01*
X117483138Y-136616103D01*
X117490514Y-136634732D01*
X117517898Y-136672423D01*
X117521106Y-136677307D01*
X117544827Y-136717416D01*
X117544833Y-136717424D01*
X117558990Y-136731580D01*
X117571628Y-136746376D01*
X117583405Y-136762586D01*
X117583406Y-136762587D01*
X117619309Y-136792288D01*
X117623620Y-136796210D01*
X117994081Y-137166671D01*
X118293229Y-137465819D01*
X118326714Y-137527142D01*
X118321730Y-137596834D01*
X118279858Y-137652767D01*
X118214394Y-137677184D01*
X118205548Y-137677500D01*
X111054452Y-137677500D01*
X110987413Y-137657815D01*
X110966771Y-137641181D01*
X110270089Y-136944499D01*
X109616678Y-136291087D01*
X109583195Y-136229767D01*
X109588179Y-136160075D01*
X109630051Y-136104142D01*
X109633207Y-136101855D01*
X109686519Y-136064527D01*
X109837529Y-135913517D01*
X109960021Y-135738579D01*
X110050276Y-135545028D01*
X110105549Y-135338745D01*
X110124162Y-135125998D01*
X110105549Y-134913251D01*
X110050276Y-134706968D01*
X109960021Y-134513417D01*
X109837529Y-134338479D01*
X109837527Y-134338476D01*
X109686521Y-134187470D01*
X109511578Y-134064975D01*
X109511579Y-134064975D01*
X109349794Y-133989534D01*
X109318030Y-133974722D01*
X109318026Y-133974721D01*
X109318022Y-133974719D01*
X109111752Y-133919450D01*
X109111748Y-133919449D01*
X109111747Y-133919449D01*
X109111746Y-133919448D01*
X109111741Y-133919448D01*
X108899002Y-133900836D01*
X108898998Y-133900836D01*
X108686258Y-133919448D01*
X108686247Y-133919450D01*
X108479977Y-133974719D01*
X108479968Y-133974723D01*
X108286421Y-134064975D01*
X108111478Y-134187470D01*
X107960472Y-134338476D01*
X107837977Y-134513419D01*
X107747725Y-134706966D01*
X107747721Y-134706975D01*
X107718775Y-134815007D01*
X107682410Y-134874668D01*
X107619563Y-134905197D01*
X107550188Y-134896902D01*
X107496310Y-134852417D01*
X107479225Y-134815007D01*
X107450278Y-134706975D01*
X107450277Y-134706974D01*
X107450276Y-134706968D01*
X107360021Y-134513417D01*
X107237529Y-134338479D01*
X107237527Y-134338476D01*
X107086521Y-134187470D01*
X106911578Y-134064975D01*
X106911579Y-134064975D01*
X106749794Y-133989534D01*
X106718030Y-133974722D01*
X106718026Y-133974721D01*
X106718022Y-133974719D01*
X106511752Y-133919450D01*
X106511748Y-133919449D01*
X106511747Y-133919449D01*
X106511746Y-133919448D01*
X106511741Y-133919448D01*
X106299002Y-133900836D01*
X106298998Y-133900836D01*
X106101138Y-133918146D01*
X106032638Y-133904379D01*
X105982455Y-133855764D01*
X105966522Y-133787735D01*
X105989898Y-133721892D01*
X106002644Y-133706943D01*
X106301788Y-133407799D01*
X106314042Y-133397984D01*
X106313859Y-133397762D01*
X106319866Y-133392790D01*
X106319877Y-133392784D01*
X106350775Y-133359880D01*
X106367227Y-133342362D01*
X106377671Y-133331916D01*
X106388120Y-133321469D01*
X106392379Y-133315976D01*
X106396152Y-133311559D01*
X106428062Y-133277580D01*
X106437715Y-133260018D01*
X106448389Y-133243768D01*
X106460673Y-133227934D01*
X106479180Y-133185165D01*
X106481749Y-133179922D01*
X106504196Y-133139091D01*
X106504197Y-133139090D01*
X106509177Y-133119689D01*
X106515478Y-133101286D01*
X106523438Y-133082894D01*
X106530730Y-133036847D01*
X106531911Y-133031150D01*
X106543500Y-132986017D01*
X106543500Y-132965980D01*
X106545027Y-132946580D01*
X106548160Y-132926802D01*
X106543775Y-132880413D01*
X106543500Y-132874575D01*
X106543500Y-129313499D01*
X106563185Y-129246460D01*
X106615989Y-129200705D01*
X106667500Y-129189499D01*
X106765871Y-129189499D01*
X106765872Y-129189499D01*
X106825483Y-129183091D01*
X106960331Y-129132796D01*
X107075546Y-129046546D01*
X107161796Y-128931331D01*
X107212091Y-128796483D01*
X107212092Y-128796472D01*
X107213365Y-128791088D01*
X107247933Y-128730369D01*
X107309841Y-128697978D01*
X107379433Y-128704199D01*
G37*
%TD.AperFunction*%
M02*
